<svg width="310" height="295" viewBox="0 0 310 295" fill="none" xmlns="http://www.w3.org/2000/svg">
<g filter="url(#filter0_i_110_123)">
<path d="M101.201 32.387C148.118 27.6304 140.89 18.1276 154.5 17.0031C168.11 18.1277 160.882 27.6304 207.799 32.387C254.758 37.148 260.154 21.97 270.075 43.046C271.718 46.5351 286.811 104.332 254.329 180.816C222.294 256.251 156.304 284.231 154.5 284.984C152.696 284.231 86.7063 256.251 54.6706 180.816C22.1894 104.332 37.282 46.5351 38.9246 43.046C48.8464 21.97 54.2419 37.1481 101.201 32.387Z" fill="#728C82"/>
</g>
<path d="M154.538 285C154.538 285 87.1517 257.3 54.6706 180.816C22.1894 104.332 37.282 46.5351 38.9246 43.046C48.8464 21.97 54.2419 37.1481 101.201 32.387C148.161 27.626 140.877 18.1101 154.538 17M154.462 285C154.462 285 221.848 257.3 254.329 180.816C286.811 104.332 271.718 46.5351 270.075 43.046C260.154 21.97 254.758 37.148 207.799 32.387C160.839 27.626 168.123 18.1101 154.462 17" stroke="#E9E3DF" stroke-width="9" stroke-linecap="square"/>
<path d="M154.538 285C154.538 285 87.1517 257.3 54.6706 180.816C22.1894 104.332 37.282 46.5351 38.9246 43.046C48.8464 21.97 54.2419 37.1481 101.201 32.387C148.161 27.626 140.877 18.1101 154.538 17M154.462 285C154.462 285 221.848 257.3 254.329 180.816C286.811 104.332 271.718 46.5351 270.075 43.046C260.154 21.97 254.758 37.148 207.799 32.387C160.839 27.626 168.123 18.1101 154.462 17" stroke="url(#paint0_linear_110_123)" stroke-opacity="0.54" stroke-width="9" stroke-linecap="square"/>
<g filter="url(#filter1_d_110_123)">
<path d="M246.199 93.523L274.277 110.723L267.5 149.714L253.5 189L232.655 177.361L194.522 163.538L156.389 149.714L68.384 132.871L38.5 127.5L33.8756 100.077L33.8756 67.351L38.5 40L86.5339 49.2012L170.203 67.351L246.199 93.523Z" fill="#E9E3DF"/>
<path d="M264.588 148.948L251.865 184.651L234.118 174.742C233.977 174.663 233.83 174.596 233.678 174.541L195.544 160.717L157.411 146.894C157.262 146.839 157.108 146.797 156.953 146.767L68.948 129.924L68.9147 129.918L41.1074 124.921L36.8756 99.8259L36.8756 67.6028L40.9469 43.5233L85.9336 52.1408L169.394 70.2452L244.911 96.2526L270.973 112.217L264.588 148.948Z" stroke="#E9E3DF" stroke-opacity="0.4" stroke-width="6" stroke-miterlimit="1" stroke-linejoin="round"/>
<path d="M264.588 148.948L251.865 184.651L234.118 174.742C233.977 174.663 233.83 174.596 233.678 174.541L195.544 160.717L157.411 146.894C157.262 146.839 157.108 146.797 156.953 146.767L68.948 129.924L68.9147 129.918L41.1074 124.921L36.8756 99.8259L36.8756 67.6028L40.9469 43.5233L85.9336 52.1408L169.394 70.2452L244.911 96.2526L270.973 112.217L264.588 148.948Z" stroke="url(#paint1_radial_110_123)" stroke-width="6" stroke-miterlimit="1" stroke-linejoin="round"/>
</g>
<g filter="url(#filter2_d_110_123)">
<path d="M58.7026 72.4104C59.8451 72.9678 60.8748 73.433 61.7918 73.8062C62.7478 74.1548 63.552 74.4358 64.2047 74.6494C64.9772 74.9233 65.6687 75.1123 66.2793 75.2163C67.0486 75.356 68.0264 75.4593 69.2125 75.526C70.3987 75.5927 71.6484 75.6737 72.9616 75.769C74.2748 75.8642 75.5649 75.9877 76.8321 76.1394C78.0992 76.291 79.1826 76.5181 80.0821 76.8206C80.9817 77.1231 81.9003 77.5634 82.8379 78.1414C83.7827 78.6876 84.6354 79.3466 85.396 80.1183C86.1638 80.8583 86.7759 81.6967 87.2324 82.6336C87.7207 83.5776 87.9263 84.5915 87.8493 85.6752C87.7794 86.7272 87.4376 87.8014 86.8239 88.8979C86.2173 89.9626 85.4078 90.9649 84.3956 91.905C83.3904 92.8132 82.2126 93.5992 80.862 94.263C79.5115 94.9267 78.0733 95.3872 76.5473 95.6444C75.3429 95.8072 74.0646 95.8532 72.7125 95.7825C71.5581 95.723 70.2274 95.557 68.7205 95.2847C67.2525 94.9877 65.7321 94.4788 64.1593 93.7579C63.7297 94.6288 63.4097 95.4577 63.1993 96.2445C63.0278 97.0067 62.906 97.6967 62.8337 98.3144C62.7718 99.0345 62.7559 99.6982 62.7861 100.306C62.848 100.92 62.9361 101.641 63.0504 102.467C63.1616 103.159 63.2723 104.002 63.3827 104.994C63.5319 105.962 63.7197 107.055 63.946 108.274C63.3743 108.145 62.815 108.036 62.2679 107.947C61.7281 107.825 61.2322 107.73 60.7805 107.662C60.2652 107.579 59.7817 107.504 59.3299 107.436C58.8146 107.353 58.2287 107.288 57.5721 107.24C57.0179 107.182 56.3137 107.124 55.4594 107.065C54.6369 107.014 53.696 106.969 52.6369 106.931C53.5182 106.128 54.2387 105.373 54.7985 104.664C55.3971 103.932 55.8596 103.285 56.1859 102.724C56.5654 102.076 56.8512 101.473 57.0434 100.915C57.1823 100.446 57.3717 99.6045 57.6115 98.3905C57.883 97.1837 58.1816 95.7828 58.5071 94.1878C58.8326 92.5927 59.1602 90.9147 59.4897 89.1537C59.8192 87.3927 60.1078 85.7393 60.3555 84.1935C60.6104 82.6159 60.7993 81.2571 60.9224 80.1169C61.0772 78.984 61.1463 78.2321 61.1297 77.8613C61.0955 77.4199 60.9733 76.9252 60.7629 76.3774C60.6017 75.9074 60.3437 75.3488 59.9888 74.7018C59.6728 74.0301 59.2441 73.2663 58.7026 72.4104ZM66.4519 84.0137C66.3487 84.3241 66.2577 84.654 66.1791 85.0034C66.0291 85.6703 65.8838 86.5385 65.7432 87.6079C65.8441 88.1978 66.014 88.7032 66.2529 89.124C66.5237 89.5519 66.8282 89.904 67.1664 90.1803C67.5364 90.4638 67.9206 90.6837 68.3192 90.8401C68.7178 90.9965 69.1235 91.1212 69.5363 91.2141C70.4962 91.3967 71.5466 91.3995 72.6875 91.2225C74.2207 90.9335 75.3981 90.2975 76.2198 89.3146C77.0416 88.3317 77.6005 87.2563 77.8967 86.0884C78.1928 84.9205 78.2294 83.7943 78.0063 82.7097C77.815 81.6323 77.4569 80.8511 76.9321 80.366C76.474 80.0293 75.8444 79.7876 75.0433 79.6407C74.3375 79.5152 73.4248 79.4934 72.3053 79.5752C71.1859 79.6569 69.771 79.9392 68.0608 80.4219C67.7734 80.9578 67.5321 81.4373 67.3368 81.8605C67.1414 82.2837 66.9727 82.6628 66.8306 82.9978C66.6813 83.3647 66.5551 83.7033 66.4519 84.0137ZM87.292 78.1426C88.2725 78.53 89.1614 78.8802 89.9585 79.193C90.7628 79.4741 91.4595 79.7143 92.0486 79.9135C92.7258 80.166 93.3272 80.3848 93.8528 80.5698C94.4983 80.8151 95.5237 80.929 96.929 80.9116C98.3414 80.8624 99.8738 80.8735 101.526 80.945C103.217 80.9918 104.908 81.1887 106.598 81.5357C108.296 81.8509 109.768 82.4992 111.015 83.4805C112.263 84.4619 113.256 85.386 113.995 86.253C114.734 87.12 115.272 87.9918 115.609 88.8683C115.984 89.7203 116.19 90.5841 116.227 91.4598C116.263 92.3355 116.187 93.2692 115.997 94.2609C115.636 95.7146 114.969 97.0492 113.995 98.2648C113.58 98.7721 113.064 99.2897 112.444 99.8177C111.864 100.321 111.176 100.784 110.38 101.205C109.585 101.627 108.669 101.988 107.634 102.289C106.631 102.597 105.482 102.806 104.19 102.915C105.286 103.529 106.162 104.16 106.817 104.808C107.504 105.463 108.039 106.05 108.422 106.57C108.88 107.207 109.198 107.796 109.376 108.336C109.576 109.082 109.685 109.707 109.705 110.212C109.725 110.717 109.701 111.195 109.632 111.647C109.603 112.074 109.586 112.521 109.581 112.987C109.576 113.453 109.668 114.008 109.857 114.651C110.011 115.153 110.21 115.681 110.452 116.236C110.676 116.72 110.942 117.247 111.247 117.816C111.585 118.393 112.021 118.975 112.556 119.562C111.66 119.394 110.83 119.224 110.068 119.052C109.338 118.888 108.703 118.745 108.163 118.624C107.528 118.481 106.928 118.329 106.363 118.169C105.799 118.008 105.088 117.832 104.23 117.639C103.5 117.474 102.563 117.264 101.42 117.006C100.308 116.756 98.9549 116.468 97.3598 116.143C98.18 115.76 98.8731 115.349 99.4392 114.909C100.005 114.469 100.465 114.056 100.819 113.668C101.22 113.224 101.537 112.779 101.771 112.331C102.123 111.509 102.339 110.623 102.419 109.674C102.502 108.858 102.445 107.928 102.246 106.882C102.055 105.805 101.61 104.67 100.91 103.479C99.9534 103.43 99.1467 103.382 98.4901 103.334C97.8724 103.262 97.3341 103.208 96.8752 103.171C96.3528 103.12 95.9292 103.075 95.6045 103.035C95.3115 103.003 94.9868 102.963 94.6303 102.916C94.3373 102.884 94.009 102.86 93.6454 102.845C93.3207 102.805 93.0083 102.785 92.7082 102.784C92.3374 104.135 92.0694 105.326 91.9042 106.357C91.7462 107.356 91.6398 108.199 91.5851 108.888C91.5334 109.71 91.5227 110.425 91.5529 111.033C91.583 111.64 91.6803 112.246 91.8446 112.85C91.9669 113.345 92.1455 113.885 92.3806 114.472C92.6227 115.027 92.9304 115.513 93.3035 115.931C92.4778 115.745 91.6838 115.566 90.9217 115.395C90.1912 115.231 89.5279 115.065 88.9316 114.897C88.2329 114.74 87.5696 114.574 86.9416 114.399C86.3136 114.225 85.6026 114.048 84.8086 113.869C84.1417 113.719 83.3478 113.541 82.4268 113.333C81.5375 113.133 80.5653 112.931 79.5102 112.727C80.5288 112.055 81.3442 111.472 81.9564 110.975C82.5685 110.479 83.0481 110.053 83.395 109.697C83.7809 109.317 84.0413 108.975 84.1763 108.672C84.3541 108.178 84.6054 107.284 84.9302 105.989C85.2938 104.669 85.6844 103.156 86.1021 101.448C86.5197 99.7401 86.9393 97.9493 87.3609 96.0756C87.7825 94.2019 88.1597 92.4516 88.4924 90.8248C88.8322 89.1662 89.1184 87.7459 89.3511 86.5637C89.5837 85.3815 89.7199 84.628 89.7596 84.3033C89.7929 83.7102 89.7151 83.0921 89.5262 82.449C89.3864 81.8837 89.1498 81.2299 88.8164 80.4875C88.4829 79.7452 87.9748 78.9635 87.292 78.1426ZM101.526 98.9625C101.886 98.8435 102.199 98.7136 102.464 98.5731C102.729 98.4326 102.988 98.1738 103.24 97.7966C103.498 97.3878 103.765 96.7971 104.039 96.0245C104.344 95.2592 104.73 94.2116 105.196 92.8817C105.631 91.5447 105.789 90.3958 105.672 89.4351C105.586 88.4816 105.346 87.6936 104.952 87.0711C104.597 86.4241 104.14 85.9374 103.579 85.611C103.057 85.2601 102.574 85.0346 102.13 84.9346C101.241 84.7345 100.306 84.8079 99.3275 85.1549C98.3485 85.5018 97.5331 86.0858 96.8813 86.9067C96.6296 87.2838 96.3331 87.9345 95.9917 88.8587C95.7106 89.6629 95.3898 90.7919 95.0294 92.2456C94.6689 93.6994 94.2842 95.6315 93.8753 98.0419C95.0392 98.504 96.0853 98.8228 97.0134 98.9982C97.9487 99.1419 98.7518 99.2059 99.4226 99.19C100.221 99.2027 100.922 99.1269 101.526 98.9625ZM116.8 87.1344C119.008 87.6981 120.84 88.1602 122.293 88.5206C123.786 88.8565 124.993 89.128 125.914 89.3353L128.439 89.9034L142.634 93.0975C142.555 93.747 142.463 94.377 142.359 94.9876C142.294 95.5735 142.212 96.0888 142.112 96.5334C141.99 97.0733 141.863 97.5619 141.732 97.9994C141.6 98.4369 141.445 98.9025 141.267 99.3964C141.104 99.8267 140.933 100.289 140.755 100.783C140.577 101.276 140.348 101.775 140.068 102.28C140.009 100.465 139.699 99.0268 139.137 97.966C138.606 96.9125 138.006 96.0935 137.337 95.5091C136.555 94.8327 135.675 94.3678 134.698 94.1145C133.382 93.8851 132.34 93.7676 131.574 93.762C130.808 93.7564 130.186 93.8501 129.709 94.043C129.232 94.236 128.839 94.498 128.531 94.829C128.262 95.1355 127.966 95.486 127.644 95.8806C127.368 96.2189 127.061 96.7671 126.724 97.5253C126.415 98.1565 126.052 99.0259 125.636 100.133C125.252 101.248 124.777 102.693 124.211 104.467C125.125 104.406 125.862 104.322 126.42 104.214C127.01 104.113 127.481 104.019 127.835 103.931C128.227 103.819 128.52 103.702 128.715 103.579C128.885 103.417 129.154 103.11 129.522 102.659C129.813 102.258 130.203 101.711 130.692 101.021C131.213 100.337 131.861 99.382 132.638 98.1553C132.372 99.6305 132.129 100.86 131.908 101.845C131.693 102.798 131.534 103.579 131.43 104.19C131.273 104.888 131.164 105.448 131.103 105.868L130.695 107.678C130.545 108.345 130.341 109.25 130.084 110.393C129.866 111.512 129.596 112.936 129.273 114.665C129.156 113.404 129.014 112.405 128.847 111.666C128.718 110.903 128.582 110.322 128.438 109.923C128.277 109.453 128.119 109.117 127.964 108.915C127.756 108.802 127.469 108.67 127.102 108.521C126.76 108.411 126.319 108.295 125.779 108.173C125.271 108.059 124.602 107.992 123.772 107.972C123.284 109.697 122.95 111.107 122.771 112.201C122.63 113.271 122.575 114.109 122.605 114.716C122.614 115.419 122.697 115.938 122.855 116.274C123.077 116.624 123.595 116.991 124.409 117.375C125.231 117.726 126.185 118.008 127.272 118.219C128.398 118.405 129.568 118.469 130.783 118.408C131.998 118.348 133.132 118.053 134.186 117.522C134.988 117.069 135.874 116.468 136.844 115.718C137.658 115.067 138.581 114.224 139.615 113.189C140.681 112.16 141.787 110.875 142.936 109.331C142.487 110.732 142.124 111.901 141.846 112.84C141.607 113.753 141.391 114.489 141.199 115.046C140.986 115.699 140.824 116.196 140.713 116.539C140.627 116.92 140.458 117.449 140.206 118.126C140.007 118.715 139.71 119.516 139.315 120.528C138.959 121.516 138.492 122.779 137.912 124.317C136.412 124.012 134.992 123.726 133.651 123.458C132.317 123.158 131.139 122.909 130.115 122.712C128.901 122.473 127.782 122.254 126.759 122.057C125.711 121.821 124.541 121.608 123.249 121.418C122.124 121.231 120.784 121.03 119.231 120.814C117.71 120.605 116.019 120.408 114.159 120.223C114.804 118.099 115.372 116.092 115.865 114.201C116.396 112.285 116.841 110.6 117.202 109.146C117.62 107.439 117.977 105.851 118.274 104.383C119.254 100.766 119.855 97.7984 120.077 95.4792C120.299 93.1601 120.29 91.6401 120.052 90.9192C119.911 90.654 119.702 90.3233 119.424 89.9271C119.196 89.6087 118.867 89.2177 118.437 88.754C118.008 88.2904 117.462 87.7505 116.8 87.1344ZM147.458 93.6823C149.327 94.2699 150.973 94.7403 152.395 95.0936C153.849 95.4541 155.084 95.7487 156.1 95.9773C157.275 96.2417 158.299 96.4386 159.17 96.5681C160.081 96.6729 161.269 96.8067 162.734 96.9694C163.976 97.0822 165.579 97.2259 167.541 97.4006C169.511 97.5435 171.912 97.6999 174.743 97.8699C174.272 98.3311 173.842 98.8349 173.452 99.3811C173.101 99.9028 172.793 100.384 172.527 100.825C172.239 101.36 171.971 101.884 171.723 102.395C171.492 102.977 171.213 103.699 170.886 104.559C170.587 105.293 170.21 106.226 169.755 107.358C169.339 108.466 168.826 109.785 168.214 111.315C167.819 108.624 167.279 106.5 166.595 104.945C165.942 103.397 165.274 102.212 164.592 101.391C163.803 100.447 162.991 99.83 162.155 99.5418C160.916 99.2631 159.846 99.2727 158.945 99.5704C158.044 99.8681 157.254 100.341 156.574 100.989C155.933 101.612 155.386 102.34 154.932 103.172C154.485 103.972 154.121 104.774 153.84 105.579C153.566 106.351 153.342 107.051 153.167 107.679C152.999 108.276 152.875 108.681 152.793 108.897C153.919 109.083 154.873 109.215 155.657 109.291C156.441 109.367 157.066 109.407 157.532 109.412C158.1 109.407 158.557 109.376 158.904 109.321C159.437 109.174 159.981 108.979 160.536 108.737C161.021 108.512 161.535 108.228 162.08 107.883C162.656 107.546 163.191 107.099 163.683 106.542C163.235 107.643 162.846 108.556 162.516 109.282C162.217 110.016 161.97 110.594 161.775 111.018C161.526 111.529 161.354 111.924 161.258 112.203C161.13 112.474 160.961 112.853 160.752 113.34C160.557 113.763 160.317 114.31 160.033 114.98C159.748 115.65 159.409 116.491 159.014 117.503C158.783 116.751 158.508 116.122 158.188 115.616C157.875 115.078 157.572 114.643 157.28 114.311C156.932 113.932 156.585 113.62 156.239 113.376C155.855 113.156 155.439 112.929 154.991 112.694C154.6 112.506 154.129 112.3 153.579 112.076C153.068 111.828 152.505 111.584 151.891 111.346C151.569 113.075 151.332 114.574 151.18 115.841C151.036 117.076 150.918 118.117 150.828 118.965C150.74 119.946 150.689 120.768 150.673 121.432C150.689 122.103 150.789 122.843 150.974 123.652C151.117 124.352 151.35 125.171 151.672 126.111C152.033 127.027 152.523 128.038 153.142 129.145C152.542 128.843 151.9 128.582 151.216 128.361C150.532 128.14 149.923 127.953 149.39 127.8C148.73 127.618 148.095 127.475 147.485 127.371C146.842 127.26 146.129 127.167 145.346 127.09C144.696 127.011 143.945 126.942 143.09 126.883C142.236 126.824 141.33 126.771 140.374 126.722C141.035 126.304 141.601 125.864 142.072 125.403C142.543 124.941 142.904 124.522 143.156 124.145C143.454 123.712 143.684 123.28 143.848 122.849C143.965 122.475 144.167 121.653 144.453 120.383C144.746 119.081 145.069 117.569 145.423 115.847C145.785 114.093 146.151 112.24 146.524 110.289C146.896 108.337 147.24 106.513 147.555 104.815C147.878 103.086 148.127 101.607 148.303 100.379C148.511 99.1578 148.596 98.4095 148.558 98.134C148.502 97.7879 148.442 97.3905 148.376 96.9419C148.272 96.2178 147.966 95.1313 147.458 93.6823ZM169.629 99.0215C171.838 99.5852 173.669 100.047 175.123 100.408C176.616 100.744 177.822 101.015 178.743 101.222L181.268 101.79L195.464 104.985C195.385 105.634 195.293 106.264 195.189 106.875C195.124 107.461 195.041 107.976 194.941 108.42C194.82 108.96 194.693 109.449 194.561 109.887C194.429 110.324 194.275 110.79 194.097 111.283C193.933 111.714 193.762 112.176 193.585 112.67C193.407 113.164 193.178 113.663 192.897 114.167C192.839 112.352 192.528 110.914 191.966 109.853C191.436 108.8 190.836 107.981 190.167 107.396C189.385 106.72 188.505 106.255 187.528 106.002C186.211 105.772 185.17 105.655 184.404 105.649C183.638 105.644 183.016 105.737 182.539 105.93C182.062 106.123 181.669 106.385 181.361 106.716C181.092 107.023 180.796 107.373 180.474 107.768C180.197 108.106 179.891 108.654 179.553 109.412C179.244 110.044 178.882 110.913 178.466 112.021C178.081 113.135 177.606 114.58 177.04 116.354C177.955 116.293 178.691 116.209 179.249 116.101C179.839 116 180.311 115.906 180.664 115.818C181.056 115.706 181.35 115.589 181.544 115.466C181.714 115.304 181.983 114.997 182.352 114.547C182.642 114.145 183.032 113.599 183.521 112.908C184.042 112.224 184.691 111.269 185.467 110.042C185.202 111.518 184.959 112.747 184.737 113.732C184.523 114.685 184.364 115.466 184.26 116.077C184.102 116.776 183.993 117.335 183.932 117.755L183.525 119.565C183.375 120.232 183.171 121.137 182.914 122.28C182.695 123.399 182.425 124.823 182.103 126.552C181.986 125.291 181.844 124.292 181.676 123.554C181.548 122.791 181.412 122.209 181.268 121.81C181.107 121.34 180.949 121.004 180.794 120.802C180.586 120.689 180.299 120.558 179.932 120.408C179.59 120.298 179.148 120.182 178.609 120.06C178.1 119.946 177.432 119.879 176.602 119.859C176.114 121.584 175.78 122.994 175.6 124.088C175.46 125.158 175.405 125.996 175.435 126.603C175.443 127.306 175.527 127.825 175.685 128.161C175.906 128.511 176.424 128.878 177.239 129.262C178.061 129.613 179.015 129.895 180.102 130.106C181.228 130.293 182.398 130.356 183.613 130.295C184.828 130.235 185.962 129.94 187.015 129.409C187.818 128.956 188.704 128.355 189.673 127.605C190.487 126.954 191.411 126.111 192.445 125.076C193.51 124.047 194.617 122.762 195.765 121.218C195.317 122.619 194.953 123.788 194.675 124.727C194.436 125.641 194.221 126.376 194.029 126.933C193.815 127.586 193.653 128.084 193.543 128.426C193.457 128.807 193.288 129.336 193.035 130.013C192.836 130.602 192.539 131.403 192.145 132.415C191.789 133.403 191.321 134.666 190.742 136.204C189.242 135.9 187.822 135.613 186.481 135.345C185.147 135.045 183.968 134.796 182.945 134.599C181.731 134.36 180.612 134.141 179.589 133.944C178.541 133.709 177.371 133.495 176.079 133.305C174.953 133.118 173.614 132.917 172.061 132.701C170.54 132.492 168.849 132.295 166.989 132.11C167.633 129.986 168.202 127.979 168.694 126.088C169.225 124.172 169.671 122.487 170.032 121.033C170.449 119.326 170.806 117.738 171.103 116.27C172.084 112.653 172.685 109.685 172.907 107.366C173.128 105.047 173.12 103.527 172.882 102.806C172.741 102.541 172.532 102.21 172.254 101.814C172.025 101.496 171.696 101.105 171.267 100.641C170.837 100.177 170.291 99.6376 169.629 99.0215ZM215.77 106.601C216.882 106.851 217.84 107.267 218.643 107.848C219.485 108.404 220.238 108.991 220.9 109.607C221.594 110.23 222.247 110.811 222.86 111.349C223.48 111.856 224.155 112.191 224.886 112.356C225.465 112.452 226.134 112.52 226.893 112.557C227.556 112.573 228.33 112.547 229.212 112.478C230.134 112.385 231.18 112.187 232.349 111.883C231.073 112.663 230.022 113.328 229.198 113.876C228.413 114.4 227.796 114.845 227.346 115.211C226.819 115.627 226.428 115.956 226.173 116.199C225.904 116.505 225.5 116.965 224.962 117.578C224.47 118.134 223.8 118.885 222.954 119.829C222.115 120.741 221.042 121.951 219.735 123.459C220.228 121.267 220.388 119.518 220.215 118.211C220.074 116.912 219.82 115.887 219.455 115.138C219.016 114.271 218.437 113.657 217.718 113.295C217.04 113.043 216.313 113.012 215.536 113.205C214.766 113.365 213.96 113.684 213.118 114.162C212.308 114.647 211.486 115.263 210.651 116.009C209.854 116.731 209.095 117.511 208.372 118.349C207.682 119.195 207.067 120.074 206.528 120.987C205.996 121.869 205.589 122.711 205.308 123.516C205.048 124.225 204.84 125.078 204.682 126.077C204.531 127.044 204.452 128.061 204.446 129.127C204.447 130.162 204.514 131.195 204.649 132.226C204.784 133.257 205.02 134.211 205.357 135.088C205.732 135.94 206.2 136.679 206.76 137.305C207.327 137.9 208.042 138.278 208.907 138.439C209.874 138.59 210.875 138.515 211.91 138.214C212.797 137.98 213.75 137.527 214.769 136.855C215.794 136.152 216.791 135.058 217.759 133.574L224.52 136.447C221.93 138.467 219.527 139.878 217.311 140.681C215.127 141.49 213.216 141.978 211.577 142.143C209.67 142.314 207.926 142.206 206.345 141.817C204.394 141.144 202.656 140.119 201.131 138.742C199.606 137.364 198.366 135.834 197.41 134.151C196.493 132.443 195.874 130.669 195.554 128.828C195.234 126.988 195.304 125.269 195.764 123.67C196.07 122.605 196.575 121.4 197.278 120.057C197.987 118.682 198.831 117.304 199.81 115.922C200.819 114.548 201.949 113.234 203.199 111.98C204.449 110.727 205.758 109.653 207.127 108.76C208.503 107.835 209.92 107.17 211.38 106.764C212.878 106.334 214.341 106.279 215.77 106.601ZM229.203 110.074C231.274 110.807 233.073 111.412 234.6 111.889C236.135 112.334 237.403 112.703 238.405 112.995C239.566 113.323 240.547 113.561 241.348 113.707C242.181 113.861 243.326 114.036 244.784 114.23C246.012 114.407 247.629 114.637 249.633 114.921C251.645 115.174 254.164 115.473 257.189 115.82C257.056 116.558 256.911 117.276 256.754 117.975C256.636 118.649 256.535 119.243 256.453 119.759C256.349 120.369 256.239 120.929 256.125 121.437C256.004 121.977 255.818 122.652 255.569 123.464C255.348 124.148 255.037 125.012 254.635 126.056C254.272 127.076 253.784 128.284 253.169 129.68C253.11 127.865 252.992 126.387 252.815 125.246C252.645 124.074 252.457 123.131 252.251 122.417C252.034 121.601 251.778 120.959 251.483 120.492C251.134 120.113 250.696 119.765 250.167 119.445C249.694 119.172 249.072 118.899 248.299 118.625C247.559 118.358 246.65 118.17 245.573 118.061C244.471 122.218 243.596 125.591 242.946 128.181C242.297 130.771 241.792 132.792 241.431 134.246C241.006 135.986 240.708 137.237 240.537 137.999C240.326 139.086 240.261 140.189 240.343 141.308C240.397 142.255 240.602 143.269 240.96 144.35C241.317 145.431 241.953 146.459 242.869 147.432L237.057 146.124C236.517 146.003 235.843 145.885 235.035 145.77C234.353 145.683 233.482 145.554 232.419 145.381C231.389 145.216 230.173 145.059 228.772 144.911C229.434 144.192 229.983 143.532 230.419 142.929C230.855 142.327 231.205 141.805 231.471 141.364C231.791 140.836 232.048 140.36 232.243 139.936C232.418 139.308 232.787 138.04 233.35 136.131C233.56 135.345 233.813 134.367 234.109 133.199C234.437 132.039 234.815 130.655 235.243 129.05C235.703 127.452 236.2 125.612 236.735 123.53C237.31 121.424 237.944 119.047 238.64 116.401C238.104 116.114 237.56 116.008 237.009 116.084C236.466 116.129 235.975 116.235 235.536 116.404C235.02 116.621 234.506 116.906 233.993 117.257C233.458 117.704 232.841 118.3 232.14 119.043C231.531 119.673 230.805 120.527 229.961 121.606C229.125 122.652 228.146 123.966 227.022 125.549C227.278 123.671 227.506 122.137 227.707 120.948C227.915 119.727 228.078 118.779 228.197 118.105C228.343 117.304 228.46 116.713 228.546 116.332C228.624 115.983 228.696 115.515 228.761 114.929C228.805 114.439 228.865 113.801 228.941 113.018C229.024 112.202 229.112 111.221 229.203 110.074Z" fill="black"/>
</g>
<path d="M40 255C129.821 173.771 180.179 128.229 270 47M40 47C129.821 128.229 180.179 173.771 270 255" stroke="#A61111" stroke-width="80" stroke-linecap="round"/>
<defs>
<filter id="filter0_i_110_123" x="29.5" y="12.1503" width="250" height="282.725" filterUnits="userSpaceOnUse" color-interpolation-filters="sRGB">
<feFlood flood-opacity="0" result="BackgroundImageFix"/>
<feBlend mode="normal" in="SourceGraphic" in2="BackgroundImageFix" result="shape"/>
<feColorMatrix in="SourceAlpha" type="matrix" values="0 0 0 0 0 0 0 0 0 0 0 0 0 0 0 0 0 0 127 0" result="hardAlpha"/>
<feOffset dy="4"/>
<feGaussianBlur stdDeviation="35.5"/>
<feComposite in2="hardAlpha" operator="arithmetic" k2="-1" k3="1"/>
<feColorMatrix type="matrix" values="0 0 0 0 0.913725 0 0 0 0 0.890196 0 0 0 0 0.87451 0 0 0 0.78 0"/>
<feBlend mode="normal" in2="shape" result="effect1_innerShadow_110_123"/>
</filter>
<filter id="filter1_d_110_123" x="8.87561" y="19" width="290.402" height="199" filterUnits="userSpaceOnUse" color-interpolation-filters="sRGB">
<feFlood flood-opacity="0" result="BackgroundImageFix"/>
<feColorMatrix in="SourceAlpha" type="matrix" values="0 0 0 0 0 0 0 0 0 0 0 0 0 0 0 0 0 0 127 0" result="hardAlpha"/>
<feOffset dy="4"/>
<feGaussianBlur stdDeviation="12.5"/>
<feComposite in2="hardAlpha" operator="out"/>
<feColorMatrix type="matrix" values="0 0 0 0 0 0 0 0 0 0 0 0 0 0 0 0 0 0 0.62 0"/>
<feBlend mode="normal" in2="BackgroundImageFix" result="effect1_dropShadow_110_123"/>
<feBlend mode="normal" in="SourceGraphic" in2="effect1_dropShadow_110_123" result="shape"/>
</filter>
<filter id="filter2_d_110_123" x="46.9423" y="70.7432" width="214.544" height="88.8002" filterUnits="userSpaceOnUse" color-interpolation-filters="sRGB">
<feFlood flood-opacity="0" result="BackgroundImageFix"/>
<feColorMatrix in="SourceAlpha" type="matrix" values="0 0 0 0 0 0 0 0 0 0 0 0 0 0 0 0 0 0 127 0" result="hardAlpha"/>
<feOffset dy="4"/>
<feGaussianBlur stdDeviation="2"/>
<feComposite in2="hardAlpha" operator="out"/>
<feColorMatrix type="matrix" values="0 0 0 0 0 0 0 0 0 0 0 0 0 0 0 0 0 0 0.25 0"/>
<feBlend mode="normal" in2="BackgroundImageFix" result="effect1_dropShadow_110_123"/>
<feBlend mode="normal" in="SourceGraphic" in2="effect1_dropShadow_110_123" result="shape"/>
</filter>
<linearGradient id="paint0_linear_110_123" x1="268.5" y1="46" x2="117" y2="187.5" gradientUnits="userSpaceOnUse">
<stop/>
<stop offset="1" stop-opacity="0"/>
</linearGradient>
<radialGradient id="paint1_radial_110_123" cx="0" cy="0" r="1" gradientUnits="userSpaceOnUse" gradientTransform="translate(162.797 115.488) rotate(83.7414) scale(92.7459 117.88)">
<stop/>
<stop offset="0.994962" stop-opacity="0"/>
</radialGradient>
</defs>
</svg>
