<svg width="356" height="753" viewBox="0 0 356 753" fill="none" xmlns="http://www.w3.org/2000/svg">
<g filter="url(#filter0_ii_108_156)">
<path d="M246.966 410.564L300.539 362.894L226.876 376.734L231.899 342.903H196.742L203.438 295.233L190.045 292.158L180 249.101L169.955 292.158L156.562 295.233L163.258 342.903H128.101L133.124 376.734L59.4607 362.894L113.034 410.564L66.1573 438.243L47.7416 485.913L59.4607 512.055L31 572.027L44.3933 635.074L96.2921 702.735L146.517 718.113L180 753.481L213.483 718.113L263.708 702.735L315.607 635.074L329 572.027L300.539 512.055L312.258 485.913L293.843 438.243L246.966 410.564Z" fill="#C0C0C0"/>
</g>
<path d="M246.966 410.564L300.539 362.894L226.876 376.734L231.899 342.903H196.742L203.438 295.233L190.045 292.158L180 249.101L169.955 292.158L156.562 295.233L163.258 342.903H128.101L133.124 376.734L59.4607 362.894L113.034 410.564L66.1573 438.243L47.7416 485.913L59.4607 512.055L31 572.027L44.3933 635.074L96.2921 702.735L146.517 718.113L180 753.481L213.483 718.113L263.708 702.735L315.607 635.074L329 572.027L300.539 512.055L312.258 485.913L293.843 438.243L246.966 410.564Z" stroke="black" stroke-width="2"/>
<g filter="url(#filter1_d_108_156)">
<path d="M284.941 549.092L320.5 554.5L327.5 571.5L314 635L298.5 654.5L263.5 651L210.5 643.457C210.5 643.457 126 631 90.5 631.5C55 632 46.0001 635 46.0001 635L32 571.5L60.5001 511.5L118.5 521L174 530.5L227.5 540L284.941 549.092Z" fill="#AF80F4" fill-opacity="0.38" shape-rendering="crispEdges"/>
<path d="M284.472 552.056L284.49 552.058L318.372 557.211L324.373 571.784L311.212 633.686L297.17 651.352L263.86 648.021L210.936 640.489L210.933 640.489L210.923 640.487L210.921 640.487L210.875 640.48L210.691 640.453C210.529 640.43 210.288 640.394 209.974 640.349C209.344 640.257 208.416 640.123 207.224 639.953C204.839 639.613 201.394 639.127 197.149 638.546C188.661 637.385 176.971 635.841 164.168 634.312C138.634 631.264 108.439 628.247 90.4578 628.5C72.6323 628.752 61.3964 629.631 54.5757 630.46C51.8017 630.797 49.7511 631.126 48.2791 631.403L35.151 571.858L62.2418 514.825L117.994 523.957L118.015 523.961L173.475 533.454L173.494 533.457L226.975 542.954C226.994 542.957 227.012 542.96 227.031 542.963L284.472 552.056Z" stroke="#E9E3DF" stroke-opacity="0.4" stroke-width="6" stroke-miterlimit="1" stroke-linejoin="round" shape-rendering="crispEdges"/>
<path d="M284.472 552.056L284.49 552.058L318.372 557.211L324.373 571.784L311.212 633.686L297.17 651.352L263.86 648.021L210.936 640.489L210.933 640.489L210.923 640.487L210.921 640.487L210.875 640.48L210.691 640.453C210.529 640.43 210.288 640.394 209.974 640.349C209.344 640.257 208.416 640.123 207.224 639.953C204.839 639.613 201.394 639.127 197.149 638.546C188.661 637.385 176.971 635.841 164.168 634.312C138.634 631.264 108.439 628.247 90.4578 628.5C72.6323 628.752 61.3964 629.631 54.5757 630.46C51.8017 630.797 49.7511 631.126 48.2791 631.403L35.151 571.858L62.2418 514.825L117.994 523.957L118.015 523.961L173.475 533.454L173.494 533.457L226.975 542.954C226.994 542.957 227.012 542.96 227.031 542.963L284.472 552.056Z" stroke="url(#paint0_radial_108_156)" stroke-width="6" stroke-miterlimit="1" stroke-linejoin="round" shape-rendering="crispEdges"/>
</g>
<g filter="url(#filter2_d_108_156)">
<path d="M50.6693 534.785C51.535 534.998 52.2619 535.167 52.8498 535.293C53.4668 535.396 53.9659 535.498 54.3471 535.598C54.8058 535.707 55.1643 535.778 55.4228 535.81C55.7038 535.872 56.1318 535.912 56.7068 535.931C57.2042 535.94 57.8712 535.958 58.7078 535.983C59.5703 536.012 60.6701 536.031 62.0074 536.04C61.3486 536.483 60.8077 536.927 60.3848 537.373C59.9909 537.797 59.681 538.178 59.455 538.517C59.1677 538.927 58.974 539.323 58.8741 539.704C58.6934 540.312 58.4967 541.153 58.284 542.229C58.1003 543.282 57.9037 544.439 57.6943 545.698C57.4849 546.958 57.2964 548.26 57.129 549.604C56.9616 550.947 56.8152 552.228 56.6897 553.446C56.5933 554.641 56.5388 555.71 56.5263 556.654C56.5396 557.6 56.6109 558.291 56.7403 558.727C56.9408 559.225 57.1542 559.724 57.3805 560.224C57.5906 560.644 57.8508 561.083 58.1611 561.542C58.4713 562 58.843 562.388 59.2759 562.704C57.7609 562.437 56.5512 562.246 55.6467 562.134L54.2512 561.96C53.8378 561.908 53.3048 561.868 52.6523 561.839C52.1032 561.824 51.4119 561.79 50.5786 561.739C49.7452 561.687 48.7406 561.641 47.5648 561.599C48.2397 561.027 48.7821 560.465 49.1921 559.912C49.6021 559.36 49.9378 558.877 50.1993 558.463C50.4963 557.976 50.7125 557.504 50.848 557.048C51.035 556.389 51.2156 555.572 51.3896 554.597C51.5927 553.598 51.778 552.532 51.9455 551.399C52.1162 550.239 52.2627 549.063 52.385 547.871C52.5363 546.657 52.6553 545.49 52.7421 544.373C52.8288 543.255 52.8769 542.238 52.8862 541.32C52.9213 540.406 52.9081 539.67 52.8465 539.111C52.8108 538.765 52.7025 538.371 52.5214 537.929C52.3597 537.541 52.127 537.092 51.8232 536.582C51.5484 536.049 51.1638 535.45 50.6693 534.785ZM62.6661 535.492C63.8032 535.844 64.7416 536.105 65.4814 536.276C66.2211 536.447 66.8204 536.587 67.2791 536.697C67.8153 536.816 68.2401 536.882 68.5534 536.895L69.7163 537.04C70.1298 537.092 70.6466 537.156 71.2668 537.233C71.9161 537.288 72.7188 537.375 73.675 537.494C74.0599 538.828 74.406 540.052 74.7133 541.166C75.0465 542.284 75.3214 543.236 75.5382 544.024C75.7873 544.974 76.0218 545.83 76.2417 546.592C76.4908 547.541 76.7545 548.585 77.0328 549.722C77.311 550.858 77.5586 551.926 77.7754 552.924C78.018 553.925 78.217 554.75 78.3723 555.399C78.5277 556.049 78.6085 556.347 78.615 556.296C78.6182 556.27 78.6633 556.013 78.7503 555.525C78.8405 555.012 78.9453 554.382 79.0645 553.636C79.1869 552.864 79.3174 552.027 79.4559 551.126C79.6235 550.202 79.7604 549.313 79.8666 548.461C80.002 547.585 80.1147 546.786 80.2048 546.062C80.295 545.339 80.3367 544.793 80.3301 544.424C80.3073 543.976 80.2151 543.452 80.0533 542.855C79.9078 542.338 79.6959 541.721 79.4178 541.004C79.143 540.261 78.7373 539.41 78.2007 538.451C79.257 538.609 80.1211 538.73 80.793 538.814C81.4649 538.897 82.0075 538.965 82.421 539.017C82.8862 539.074 83.2496 539.107 83.5112 539.113C83.8471 539.155 84.2638 539.18 84.7613 539.19C85.207 539.193 85.7545 539.222 86.4038 539.277C87.0821 539.309 87.9171 539.347 88.9088 539.392C88.2758 539.838 87.7624 540.272 87.3685 540.696C86.9746 541.119 86.6518 541.499 86.4 541.835C86.1159 542.219 85.9126 542.588 85.79 542.94C85.6286 543.392 85.4432 544.143 85.2337 545.193C85.0532 546.22 84.8437 547.375 84.6052 548.657C84.3926 549.943 84.1735 551.28 83.9479 552.669C83.7224 554.058 83.5114 555.331 83.3148 556.488C83.2053 557.366 83.062 558.306 82.8847 559.308C82.7268 560.154 82.5544 561.117 82.3675 562.196C82.1838 563.249 81.9856 564.313 81.7728 565.389L78.3133 565.036C77.5276 563.128 76.8648 561.497 76.3248 560.144C75.8139 558.768 75.3903 557.639 75.054 556.757C74.6821 555.74 74.3685 554.888 74.113 554.2C73.906 553.544 73.6198 552.787 73.2545 551.928C72.9506 551.207 72.5626 550.319 72.0906 549.263C71.6444 548.21 71.0996 547.001 70.4563 545.635C70.1566 547.408 69.9279 548.928 69.7702 550.194C69.6415 551.438 69.5514 552.477 69.5001 553.31C69.4585 554.276 69.4491 555.088 69.472 555.747C69.524 556.383 69.6179 557.104 69.7539 557.908C69.877 558.606 70.0243 559.424 70.1958 560.364C70.3933 561.307 70.6408 562.375 70.9384 563.567C69.4234 563.299 68.2912 563.119 67.5418 563.025L66.3789 562.88C66.0171 562.835 65.5213 562.813 64.8914 562.813C64.3682 562.8 63.6479 562.789 62.7305 562.78C61.839 562.774 60.723 562.779 59.3825 562.796C60.0961 562.124 60.6724 561.5 61.1115 560.925C61.5796 560.327 61.9444 559.822 62.2059 559.408C62.5287 558.923 62.7659 558.494 62.9176 558.119C63.0466 557.715 63.1868 557.011 63.3382 556.006C63.4928 554.976 63.6377 553.813 63.7729 552.518C63.9371 551.2 64.0835 549.814 64.2121 548.36C64.3665 546.91 64.4952 545.561 64.598 544.315C64.7009 543.068 64.7683 542 64.8002 541.112C64.858 540.227 64.8868 539.679 64.8867 539.469C64.8511 539.124 64.7411 538.743 64.5568 538.326C64.3919 537.964 64.1673 537.556 63.8828 537.101C63.6016 536.619 63.196 536.083 62.6661 535.492ZM96.4289 540.644C97.036 540.404 97.7159 540.213 98.4684 540.071C99.2242 539.903 99.9978 539.802 100.789 539.77C101.584 539.711 102.37 539.717 103.149 539.788C103.953 539.862 104.694 540.02 105.373 540.262C107.36 540.956 108.973 542.01 110.214 543.424C111.455 544.838 112.347 546.419 112.891 548.166C113.46 549.917 113.69 551.756 113.581 553.684C113.501 555.59 113.119 557.393 112.435 559.092C112.216 559.59 111.883 560.152 111.438 560.779C111.057 561.308 110.543 561.953 109.898 562.712C109.255 563.446 108.433 564.249 107.432 565.121C107.581 565.612 107.741 566.013 107.913 566.323C108.113 566.61 108.308 566.831 108.499 566.986C108.712 567.17 108.919 567.301 109.119 567.379C109.323 567.43 109.567 567.474 109.851 567.509C110.084 567.538 110.357 567.559 110.67 567.572C111.012 567.562 111.384 567.529 111.784 567.474L105.109 571.76C105.083 571.337 105.038 570.964 104.973 570.641C104.931 570.347 104.897 570.094 104.871 569.88L104.711 569.27C104.624 569.128 104.541 568.947 104.464 568.727C104.38 568.559 104.288 568.351 104.187 568.102C104.087 567.854 103.951 567.574 103.78 567.264C102.075 567.682 100.539 567.897 99.1727 567.911C97.8322 567.927 96.6289 567.791 95.5629 567.5C94.4936 567.236 93.5551 566.87 92.7474 566.402C91.9429 565.908 91.2483 565.375 90.6634 564.804C89.3094 563.454 88.3236 561.783 87.7058 559.79C87.0716 557.087 86.9269 554.668 87.2716 552.532C87.6454 550.375 88.2988 548.501 89.2316 546.911C90.1677 545.296 91.2783 543.965 92.5634 542.918C93.8744 541.874 95.1629 541.116 96.4289 540.644ZM99.7125 561.05C99.3378 560.898 98.9808 560.814 98.6416 560.798C98.3542 560.789 98.0586 560.844 97.755 560.963C97.4515 561.083 97.2093 561.342 97.0286 561.739C97.3227 562.117 97.5974 562.44 97.8527 562.708C98.137 562.953 98.3745 563.153 98.5651 563.308C98.8042 563.495 99.0207 563.654 99.2146 563.783C99.5603 563.957 99.9092 564.105 100.261 564.228C100.565 564.318 100.898 564.386 101.259 564.431C101.65 564.454 102.025 564.395 102.383 564.256C102.193 563.681 101.939 563.19 101.622 562.784C101.335 562.354 101.049 562.017 100.764 561.771C100.435 561.468 100.084 561.227 99.7125 561.05ZM95.7775 559.142C96.3005 558.525 96.8382 558.107 97.3904 557.887C97.9427 557.667 98.4594 557.521 98.9407 557.45C99.4962 557.414 100.057 557.445 100.622 557.542C101.149 557.738 101.664 558.026 102.168 558.403C102.598 558.746 103.039 559.207 103.491 559.789C103.947 560.344 104.341 561.075 104.674 561.983C105.165 561.414 105.556 560.807 105.846 560.161C106.136 559.515 106.367 558.927 106.538 558.397C106.722 557.764 106.853 557.137 106.93 556.517C106.997 555.554 107.019 554.533 106.996 553.455C106.973 552.376 106.871 551.3 106.69 550.228C106.534 549.159 106.295 548.132 105.972 547.147C105.648 546.162 105.218 545.295 104.682 544.545C104.171 543.799 103.536 543.209 102.777 542.773C102.043 542.34 101.176 542.14 100.175 542.173C99.0701 542.193 98.1238 542.521 97.3359 543.158C96.5739 543.798 95.9379 544.584 95.4279 545.518C94.947 546.429 94.5857 547.434 94.3439 548.532C94.1311 549.608 94.0217 550.592 94.0156 551.483C94.003 552.216 94.063 552.998 94.1958 553.828C94.3188 554.526 94.4936 555.335 94.7201 556.255C94.9466 557.176 95.299 558.138 95.7775 559.142ZM115.897 542.36C116.653 542.612 117.298 542.811 117.831 542.956C118.364 543.101 118.808 543.222 119.163 543.318C119.57 543.422 119.916 543.491 120.2 543.526C120.484 543.562 120.874 543.597 121.368 543.633C121.81 543.661 122.368 543.718 123.039 543.801C123.715 543.859 124.572 543.927 125.612 544.004C124.966 544.343 124.445 544.633 124.048 544.872C123.651 545.111 123.349 545.323 123.142 545.507C122.88 545.71 122.714 545.887 122.643 546.035C122.579 546.132 122.479 546.513 122.343 547.179C122.211 547.818 122.056 548.639 121.879 549.64C121.731 550.619 121.592 551.73 121.464 552.974C121.338 554.192 121.248 555.44 121.194 556.719C121.165 558.002 121.193 559.252 121.278 560.469C121.366 561.661 121.548 562.721 121.827 563.647C122.131 564.578 122.536 565.324 123.044 565.885C123.577 566.45 124.265 566.72 125.108 566.694C126.213 566.674 127.157 566.254 127.942 565.433C128.726 564.612 129.367 563.577 129.864 562.326C130.387 561.079 130.779 559.724 131.04 558.261C131.33 556.775 131.517 555.381 131.6 554.079C131.713 552.755 131.751 551.605 131.715 550.629C131.679 549.654 131.611 549.042 131.511 548.793C131.388 548.516 131.218 548.193 131.002 547.824C130.83 547.514 130.599 547.158 130.308 546.754C130.021 546.324 129.685 545.863 129.3 545.369C130.098 545.494 130.818 545.61 131.461 545.717C132.107 545.797 132.648 545.878 133.084 545.958C133.598 546.048 134.06 546.132 134.47 546.21C134.88 546.287 135.392 546.39 136.006 546.519C136.517 546.635 137.169 546.769 137.964 546.92C138.784 547.075 139.757 547.275 140.881 547.52C140.429 547.569 140.049 547.666 139.742 547.811C139.461 547.96 139.23 548.128 139.05 548.315C138.84 548.525 138.682 548.742 138.575 548.965C138.472 549.162 138.33 549.774 138.149 550.801C137.998 551.806 137.793 553.027 137.536 554.464C137.307 555.879 137.023 557.419 136.685 559.082C136.349 560.72 135.946 562.271 135.475 563.734C135.03 565.201 134.516 566.488 133.931 567.596C133.373 568.708 132.73 569.441 132.004 569.797C130.941 570.32 129.85 570.657 128.729 570.806C127.611 570.929 126.495 570.934 125.381 570.822C124.27 570.683 123.183 570.456 122.12 570.14C121.086 569.801 120.096 569.428 119.149 569.022C118.18 568.586 117.427 567.784 116.891 566.615C116.38 565.449 116.022 564.105 115.818 562.584C115.643 561.04 115.571 559.404 115.603 557.676C115.664 555.925 115.768 554.246 115.916 552.637C116.09 551.032 116.27 549.584 116.457 548.296C116.673 546.984 116.835 545.994 116.945 545.325C116.987 544.989 116.975 544.66 116.911 544.337C116.869 544.043 116.763 543.728 116.595 543.392C116.456 543.034 116.224 542.69 115.897 542.36ZM140.832 546.018C141.697 546.231 142.424 546.4 143.012 546.526C143.629 546.629 144.128 546.731 144.509 546.831C144.968 546.94 145.327 547.011 145.585 547.043C145.866 547.105 146.294 547.145 146.869 547.164C147.367 547.173 148.034 547.191 148.87 547.216C149.733 547.245 150.832 547.264 152.17 547.273C151.511 547.716 150.97 548.16 150.547 548.606C150.153 549.03 149.843 549.411 149.617 549.75C149.33 550.16 149.136 550.556 149.036 550.937C148.856 551.545 148.659 552.386 148.446 553.462C148.263 554.515 148.066 555.671 147.857 556.931C147.647 558.191 147.459 559.493 147.291 560.837C147.124 562.18 146.978 563.461 146.852 564.679C146.756 565.874 146.701 566.943 146.689 567.886C146.702 568.833 146.773 569.524 146.903 569.96C147.103 570.457 147.316 570.956 147.543 571.457C147.753 571.877 148.013 572.316 148.323 572.775C148.634 573.233 149.005 573.621 149.438 573.937C147.923 573.669 146.714 573.479 145.809 573.367L144.414 573.193C144 573.141 143.467 573.101 142.815 573.072C142.266 573.056 141.574 573.023 140.741 572.971C139.908 572.92 138.903 572.874 137.727 572.832C138.402 572.26 138.944 571.698 139.354 571.145C139.764 570.593 140.1 570.11 140.362 569.696C140.659 569.208 140.875 568.737 141.01 568.281C141.197 567.622 141.378 566.805 141.552 565.829C141.755 564.831 141.94 563.765 142.108 562.631C142.279 561.472 142.425 560.296 142.547 559.104C142.699 557.889 142.818 556.723 142.904 555.606C142.991 554.488 143.039 553.471 143.049 552.553C143.084 551.639 143.07 550.903 143.009 550.344C142.973 549.998 142.865 549.604 142.684 549.162C142.522 548.774 142.289 548.325 141.986 547.815C141.711 547.282 141.326 546.683 140.832 546.018ZM178.252 548.987C177.787 549.769 177.374 550.453 177.012 551.037C176.651 551.622 176.339 552.121 176.078 552.535C175.784 552.997 175.535 553.412 175.332 553.78C175.167 554.049 174.951 554.415 174.683 554.88C174.422 555.294 174.091 555.843 173.691 556.528C173.319 557.191 172.832 558.048 172.228 559.102C172.115 558.116 171.935 557.241 171.69 556.476C171.444 555.71 171.161 555.032 170.841 554.441C170.521 553.85 170.162 553.359 169.765 552.969C169.396 552.555 169.02 552.207 168.635 551.923C167.744 551.287 166.771 550.877 165.718 550.693C164.313 550.597 163.186 550.693 162.336 550.98C161.516 551.246 160.894 551.601 160.471 552.047C160.052 552.467 159.797 552.934 159.706 553.448C159.619 553.935 159.632 554.357 159.746 554.712C159.836 555.038 160.243 555.456 160.967 555.967C161.717 556.48 162.613 557.077 163.657 557.758C164.73 558.417 165.87 559.162 167.078 559.995C168.29 560.802 169.389 561.674 170.374 562.61C171.389 563.524 172.213 564.493 172.846 565.516C173.509 566.517 173.815 567.539 173.763 568.583C173.677 569.91 173.516 571.098 173.28 572.144C173.045 573.191 172.57 574.05 171.857 574.722C171.143 575.394 170.1 575.868 168.728 576.143C167.381 576.422 165.551 576.469 163.238 576.286C160.848 576.093 158.913 575.721 157.433 575.169C155.954 574.617 154.774 573.972 153.895 573.233C153.042 572.496 152.43 571.725 152.058 570.917C151.712 570.113 151.478 569.362 151.355 568.665C151.235 567.941 151.167 567.329 151.151 566.828C151.137 566.302 151.047 565.976 150.879 565.85C150.688 565.695 150.496 565.553 150.302 565.424C150.134 565.298 149.951 565.183 149.754 565.08C149.561 564.951 149.365 564.835 149.168 564.731L160.675 564.315C159.965 564.751 159.401 565.166 158.985 565.561C158.594 565.958 158.287 566.314 158.064 566.627C157.809 566.989 157.622 567.333 157.503 567.659C157.406 568.015 157.466 568.481 157.683 569.059C157.899 569.637 158.221 570.215 158.648 570.793C159.103 571.349 159.646 571.836 160.276 572.256C160.906 572.676 161.586 572.905 162.316 572.943C163.23 572.978 163.994 572.85 164.608 572.56C165.225 572.243 165.71 571.818 166.066 571.285C166.447 570.755 166.705 570.157 166.84 569.492C166.975 568.826 166.993 568.159 166.893 567.491C166.821 566.799 166.64 566.147 166.349 565.533C166.061 564.894 165.696 564.35 165.253 563.901C164.853 563.536 164.205 563.154 163.31 562.754C162.441 562.357 161.459 561.919 160.364 561.442C159.294 560.967 158.193 560.436 157.059 559.849C155.951 559.265 154.959 558.59 154.083 557.825C153.233 557.063 152.579 556.207 152.12 555.258C151.686 554.312 151.612 553.226 151.895 552.002C152.131 550.955 152.576 550.119 153.232 549.492C153.916 548.842 154.724 548.365 155.654 548.061C156.613 547.735 157.648 547.536 158.759 547.464C159.896 547.396 161.035 547.42 162.175 547.536C163.344 547.629 164.48 547.783 165.581 547.999C166.709 548.218 167.718 548.436 168.61 548.652C169.501 548.868 170.251 549.067 170.858 549.247C171.494 549.405 171.889 549.507 172.04 549.552C172.706 549.687 173.379 549.758 174.061 549.764C174.662 549.787 175.322 549.751 176.043 549.657C176.792 549.54 177.528 549.317 178.252 548.987ZM177.85 550.63C178.716 550.843 179.443 551.012 180.031 551.138C180.648 551.241 181.147 551.342 181.528 551.442C181.987 551.552 182.345 551.623 182.604 551.655C182.885 551.716 183.313 551.757 183.888 551.776C184.385 551.785 185.052 551.803 185.889 551.828C186.751 551.857 187.851 551.876 189.188 551.885C188.529 552.328 187.989 552.772 187.566 553.218C187.172 553.641 186.862 554.023 186.636 554.362C186.349 554.772 186.155 555.168 186.055 555.549C185.874 556.157 185.678 556.998 185.465 558.074C185.281 559.127 185.085 560.283 184.875 561.543C184.666 562.803 184.477 564.105 184.31 565.449C184.142 566.792 183.996 568.073 183.871 569.291C183.774 570.486 183.72 571.555 183.707 572.498C183.72 573.445 183.792 574.136 183.921 574.572C184.122 575.069 184.335 575.568 184.561 576.069C184.771 576.489 185.032 576.928 185.342 577.386C185.652 577.845 186.024 578.232 186.457 578.549C184.942 578.281 183.732 578.091 182.828 577.979L181.432 577.805C181.019 577.753 180.486 577.713 179.833 577.684C179.284 577.668 178.593 577.635 177.759 577.583C176.926 577.532 175.921 577.486 174.746 577.444C175.421 576.872 175.963 576.31 176.373 575.757C176.783 575.205 177.119 574.722 177.38 574.308C177.677 573.82 177.893 573.349 178.029 572.893C178.216 572.234 178.396 571.417 178.57 570.441C178.774 569.443 178.959 568.377 179.126 567.243C179.297 566.084 179.444 564.908 179.566 563.716C179.717 562.501 179.836 561.335 179.923 560.218C180.01 559.1 180.058 558.082 180.067 557.165C180.102 556.251 180.089 555.515 180.027 554.956C179.992 554.61 179.883 554.216 179.702 553.774C179.541 553.386 179.308 552.937 179.004 552.427C178.729 551.894 178.345 551.295 177.85 550.63ZM189.367 550.451C191.073 550.873 192.552 551.215 193.805 551.476C195.062 551.711 196.101 551.906 196.921 552.061C197.871 552.232 198.67 552.345 199.32 552.399C199.995 552.457 200.92 552.507 202.096 552.548C203.087 552.593 204.392 552.651 206.011 552.721C207.632 552.766 209.661 552.809 212.096 552.85C212.048 553.447 211.989 554.03 211.918 554.599C211.876 555.145 211.842 555.626 211.817 556.043C211.781 556.537 211.738 556.991 211.686 557.404C211.632 557.843 211.536 558.396 211.401 559.061C211.279 559.623 211.098 560.336 210.859 561.198C210.65 562.038 210.355 563.038 209.974 564.198C209.786 562.757 209.577 561.59 209.347 560.695C209.121 559.774 208.898 559.038 208.678 558.486C208.442 557.853 208.188 557.362 207.917 557.013C207.61 556.739 207.233 556.495 206.787 556.282C206.39 556.101 205.873 555.932 205.237 555.774C204.626 555.619 203.888 555.54 203.022 555.537C202.468 558.933 202.033 561.686 201.718 563.799C201.402 565.912 201.157 567.561 200.983 568.746C200.78 570.164 200.64 571.183 200.563 571.804C200.479 572.685 200.514 573.569 200.666 574.454C200.782 575.203 201.025 575.994 201.394 576.828C201.762 577.661 202.349 578.429 203.153 579.133L198.424 578.544C197.985 578.489 197.439 578.447 196.786 578.419C196.237 578.403 195.533 578.367 194.674 578.313C193.841 578.262 192.86 578.231 191.733 578.222C192.204 577.598 192.59 577.03 192.89 576.516C193.19 576.002 193.429 575.56 193.607 575.188C193.82 574.742 193.988 574.343 194.11 573.991C194.2 573.478 194.395 572.439 194.695 570.876C194.801 570.233 194.927 569.435 195.072 568.482C195.243 567.532 195.436 566.402 195.652 565.09C195.894 563.782 196.147 562.278 196.411 560.579C196.704 558.857 197.025 556.916 197.373 554.755C196.924 554.568 196.483 554.526 196.05 554.629C195.62 554.707 195.238 554.83 194.902 554.998C194.508 555.212 194.12 555.478 193.739 555.798C193.349 556.196 192.903 556.717 192.403 557.364C191.967 557.913 191.455 558.65 190.868 559.574C190.283 560.472 189.606 561.595 188.834 562.942C188.892 561.427 188.954 560.188 189.022 559.225C189.092 558.237 189.148 557.47 189.19 556.924C189.245 556.275 189.292 555.795 189.33 555.485C189.366 555.201 189.386 554.823 189.393 554.351C189.389 553.957 189.387 553.445 189.387 552.815C189.39 552.16 189.383 551.371 189.367 550.451ZM225.687 554.031C227.076 554.257 228.452 554.691 229.816 555.333C231.208 555.952 232.449 556.842 233.538 558.001C234.63 559.134 235.505 560.542 236.161 562.225C236.821 563.881 237.114 565.847 237.04 568.121C236.993 569.978 236.533 571.771 235.662 573.5C234.819 575.205 233.749 576.738 232.451 578.099C231.153 579.459 229.715 580.579 228.136 581.458C226.56 582.312 225.027 582.816 223.538 582.972C222.634 583.069 221.662 582.974 220.621 582.687C219.61 582.377 218.591 581.922 217.563 581.322C216.565 580.699 215.596 579.948 214.655 579.07C213.741 578.195 212.93 577.228 212.222 576.169C211.517 575.084 210.952 573.938 210.525 572.73C210.124 571.525 209.936 570.294 209.961 569.038C209.961 567.988 210.09 566.85 210.348 565.622C210.635 564.372 211.036 563.149 211.552 561.954C212.098 560.736 212.779 559.587 213.596 558.508C214.442 557.406 215.449 556.482 216.618 555.735C217.79 554.963 219.117 554.42 220.6 554.106C222.111 553.769 223.807 553.744 225.687 554.031ZM216.793 568.866C216.087 571.586 216.068 573.84 216.737 575.629C217.433 577.422 218.662 578.612 220.426 579.199C221.282 579.489 222.145 579.413 223.013 578.97C223.911 578.504 224.762 577.784 225.566 576.808C226.37 575.832 227.106 574.664 227.774 573.304C228.442 571.944 228.989 570.503 229.414 568.982C229.84 567.46 230.027 566.066 229.975 564.8C229.952 563.511 229.762 562.399 229.407 561.462C229.054 560.5 228.572 559.731 227.962 559.156C227.377 558.585 226.739 558.23 226.047 558.091C224.843 557.862 223.743 558.053 222.748 558.664C221.757 559.249 220.88 560.072 220.118 561.131C219.356 562.191 218.693 563.408 218.128 564.781C217.59 566.157 217.144 567.519 216.793 568.866ZM237.937 556.502C238.748 556.734 239.482 556.944 240.141 557.131C240.804 557.292 241.377 557.429 241.862 557.542C242.421 557.69 242.916 557.818 243.349 557.924C243.882 558.069 244.708 558.08 245.825 557.957C246.946 557.808 248.167 557.698 249.488 557.626C250.838 557.532 252.2 557.557 253.572 557.702C254.948 557.821 256.171 558.223 257.241 558.907C258.31 559.591 259.173 560.25 259.829 560.883C260.485 561.515 260.981 562.168 261.317 562.839C261.682 563.489 261.913 564.16 262.011 564.855C262.108 565.549 262.119 566.299 262.045 567.103C261.872 568.288 261.444 569.403 260.763 570.447C260.472 570.883 260.101 571.335 259.649 571.804C259.226 572.25 258.714 572.671 258.114 573.069C257.513 573.466 256.812 573.825 256.011 574.145C255.236 574.469 254.338 574.724 253.318 574.912C254.238 575.315 254.985 575.749 255.557 576.214C256.154 576.682 256.626 577.109 256.972 577.493C257.386 577.964 257.685 578.408 257.869 578.825C258.086 579.403 258.221 579.892 258.276 580.293C258.332 580.693 258.349 581.076 258.33 581.441C258.34 581.783 258.361 582.14 258.394 582.512C258.426 582.883 258.543 583.318 258.743 583.815C258.905 584.203 259.104 584.608 259.34 585.031C259.556 585.399 259.808 585.798 260.096 586.227C260.409 586.66 260.802 587.089 261.274 587.516C260.547 587.451 259.873 587.381 259.253 587.303C258.659 587.229 258.142 587.165 257.703 587.11C257.186 587.046 256.696 586.972 256.235 586.888C255.773 586.804 255.193 586.719 254.495 586.632C253.901 586.558 253.138 586.463 252.208 586.347C251.304 586.234 250.204 586.11 248.908 585.975C249.532 585.607 250.052 585.225 250.468 584.831C250.885 584.437 251.219 584.072 251.471 583.736C251.755 583.351 251.972 582.971 252.124 582.597C252.34 581.915 252.443 581.193 252.433 580.431C252.436 579.775 252.318 579.039 252.079 578.222C251.843 577.379 251.4 576.51 250.75 575.616C249.985 575.651 249.339 575.676 248.812 575.689C248.315 575.679 247.882 575.678 247.514 575.685C247.094 575.685 246.753 575.682 246.491 575.675C246.256 575.672 245.994 575.666 245.706 575.656C245.471 575.653 245.207 575.66 244.917 575.676C244.655 575.67 244.405 575.678 244.166 575.701C243.976 576.805 243.855 577.774 243.803 578.608C243.755 579.415 243.736 580.095 243.746 580.648C243.769 581.307 243.816 581.877 243.887 582.358C243.959 582.839 244.083 583.314 244.261 583.782C244.397 584.166 244.581 584.583 244.814 585.032C245.05 585.455 245.333 585.818 245.662 586.122C244.99 586.038 244.344 585.958 243.724 585.88C243.13 585.806 242.589 585.726 242.101 585.639C241.532 585.568 240.991 585.487 240.478 585.397C239.964 585.307 239.384 585.222 238.738 585.141C238.195 585.073 237.549 584.993 236.8 584.9C236.076 584.809 235.287 584.724 234.431 584.644C235.189 584.03 235.793 583.501 236.242 583.059C236.691 582.616 237.04 582.24 237.288 581.929C237.566 581.597 237.747 581.304 237.83 581.052C237.934 580.645 238.064 579.913 238.222 578.857C238.409 577.778 238.602 576.543 238.802 575.15C239.002 573.758 239.196 572.3 239.386 570.775C239.576 569.25 239.74 567.827 239.879 566.506C240.02 565.159 240.138 564.006 240.231 563.047C240.324 562.087 240.374 561.477 240.381 561.215C240.361 560.74 240.251 560.254 240.051 559.757C239.895 559.318 239.656 558.816 239.333 558.25C239.01 557.685 238.544 557.102 237.937 556.502ZM250.889 571.972C251.167 571.849 251.406 571.721 251.606 571.589C251.806 571.456 251.992 571.23 252.163 570.91C252.337 570.565 252.503 570.074 252.661 569.437C252.845 568.804 253.071 567.94 253.339 566.845C253.58 565.746 253.617 564.819 253.449 564.064C253.307 563.311 253.054 562.702 252.692 562.237C252.36 561.75 251.957 561.398 251.486 561.182C251.043 560.943 250.641 560.801 250.279 560.756C249.555 560.666 248.817 560.797 248.065 561.149C247.312 561.501 246.709 562.03 246.253 562.734C246.082 563.054 245.897 563.595 245.697 564.358C245.536 565.02 245.368 565.944 245.194 567.129C245.02 568.315 244.864 569.883 244.726 571.834C245.689 572.111 246.546 572.284 247.299 572.351C248.055 572.393 248.699 572.381 249.232 572.317C249.869 572.265 250.421 572.15 250.889 571.972ZM264.136 561.38C265.002 561.593 265.729 561.762 266.317 561.888C266.934 561.991 267.433 562.092 267.814 562.192C268.273 562.302 268.631 562.373 268.89 562.405C269.171 562.466 269.599 562.507 270.174 562.526C270.671 562.535 271.338 562.553 272.175 562.578C273.037 562.607 274.137 562.626 275.474 562.635C274.816 563.078 274.275 563.522 273.852 563.968C273.458 564.391 273.148 564.773 272.922 565.112C272.635 565.522 272.441 565.918 272.341 566.299C272.16 566.907 271.964 567.748 271.751 568.824C271.567 569.877 271.371 571.033 271.161 572.293C270.952 573.553 270.763 574.855 270.596 576.198C270.429 577.542 270.282 578.823 270.157 580.041C270.06 581.236 270.006 582.305 269.993 583.248C270.006 584.195 270.078 584.886 270.207 585.322C270.408 585.819 270.621 586.318 270.847 586.819C271.057 587.239 271.318 587.678 271.628 588.136C271.938 588.595 272.31 588.982 272.743 589.299C271.228 589.031 270.018 588.841 269.114 588.729L267.718 588.555C267.305 588.503 266.772 588.463 266.119 588.434C265.57 588.418 264.879 588.385 264.045 588.333C263.212 588.282 262.208 588.236 261.032 588.194C261.707 587.622 262.249 587.06 262.659 586.507C263.069 585.955 263.405 585.472 263.666 585.058C263.963 584.57 264.179 584.099 264.315 583.643C264.502 582.984 264.682 582.167 264.857 581.191C265.06 580.193 265.245 579.127 265.412 577.993C265.583 576.834 265.73 575.658 265.852 574.466C266.003 573.251 266.122 572.085 266.209 570.968C266.296 569.85 266.344 568.832 266.353 567.915C266.388 567.001 266.375 566.265 266.313 565.706C266.278 565.36 266.169 564.966 265.988 564.524C265.827 564.136 265.594 563.687 265.29 563.177C265.015 562.644 264.631 562.045 264.136 561.38ZM282.452 564.134C283.734 564.373 284.812 564.573 285.684 564.734C286.585 564.872 287.331 564.991 287.922 565.091C288.591 565.201 289.16 565.272 289.628 565.304C290.096 565.336 290.737 565.35 291.551 565.347C292.233 565.353 293.139 565.348 294.27 565.331C295.429 565.292 296.866 565.235 298.582 565.16C297.913 565.68 297.38 566.165 296.983 566.614C296.615 567.04 296.32 567.41 296.097 567.724C295.839 568.111 295.653 568.443 295.54 568.717C295.456 568.969 295.428 569.622 295.454 570.675C295.48 571.728 295.547 572.982 295.654 574.439C295.765 575.87 295.888 577.408 296.024 579.052C296.164 580.67 296.315 582.198 296.477 583.635C296.642 585.046 296.793 586.259 296.929 587.273C297.094 588.265 297.23 588.859 297.336 589.056C297.657 589.647 297.857 590.04 297.938 590.233C298.022 590.401 298.185 590.566 298.427 590.727C298.524 590.792 298.683 590.89 298.902 591.023C299.096 591.152 299.351 591.315 299.668 591.512C300.01 591.712 300.44 591.949 300.957 592.223C299.943 592.15 299.072 592.08 298.345 592.016C297.622 591.926 297.026 591.865 296.558 591.833C296.012 591.791 295.543 591.759 295.152 591.736C294.765 591.688 294.296 591.656 293.747 591.64C293.276 591.634 292.662 591.61 291.906 591.568C291.176 591.53 290.317 591.475 289.328 591.404C289.89 591.107 290.344 590.836 290.69 590.59C291.064 590.322 291.355 590.095 291.561 589.911C291.8 589.679 291.972 589.464 292.075 589.267C292.155 589.041 292.238 588.696 292.321 588.235C292.399 587.824 292.466 587.282 292.524 586.607C292.585 585.906 292.633 584.993 292.669 583.869L282.344 583.645C282.03 584.053 281.788 584.416 281.617 584.736C281.449 585.03 281.325 585.29 281.244 585.516C281.132 585.791 281.077 586.02 281.08 586.204C281.106 586.417 281.166 586.674 281.26 586.975C281.357 587.249 281.499 587.582 281.686 587.972C281.903 588.341 282.228 588.788 282.661 589.314C282.018 589.208 281.361 589.113 280.689 589.029C280.017 588.945 279.395 588.881 278.823 588.836C278.148 588.778 277.486 588.722 276.837 588.667C276.187 588.613 275.446 588.56 274.613 588.508C273.909 588.473 273.086 588.436 272.147 588.398C271.184 588.33 270.154 588.281 269.055 588.249C269.766 588.023 270.373 587.783 270.877 587.531C271.384 587.253 271.81 586.991 272.156 586.746C272.556 586.481 272.903 586.222 273.197 585.97C273.41 585.734 273.846 585.185 274.504 584.322C275.166 583.434 275.914 582.385 276.746 581.177C277.605 579.972 278.501 578.679 279.434 577.3C280.393 575.923 281.263 574.628 282.044 573.413C282.828 572.172 283.474 571.098 283.981 570.19C284.487 569.282 284.758 568.686 284.794 568.402C284.784 568.059 284.701 567.669 284.546 567.229C284.41 566.845 284.178 566.396 283.848 565.883C283.544 565.372 283.079 564.79 282.452 564.134ZM292.561 580.943C292.518 580.019 292.473 579.226 292.424 578.564C292.379 577.876 292.344 577.307 292.322 576.858C292.283 576.329 292.262 575.867 292.258 575.473C292.226 575.101 292.193 574.625 292.161 574.043C292.118 573.539 292.065 572.916 292 572.173C291.964 571.408 291.907 570.495 291.829 569.436C289.989 572.198 288.554 574.342 287.525 575.867C286.524 577.369 285.796 578.473 285.341 579.177C284.792 580.001 284.482 580.487 284.411 580.636L292.561 580.943ZM303.112 564.819C303.845 565.041 304.493 565.214 305.055 565.336C305.643 565.462 306.129 565.562 306.513 565.636C306.975 565.72 307.374 565.783 307.71 565.824C308.046 565.866 308.527 565.9 309.154 565.926C309.677 565.938 310.357 565.957 311.194 565.983C312.056 566.012 313.119 566.013 314.382 565.987C314.007 566.045 313.634 566.3 313.263 566.752C312.921 567.182 312.6 567.654 312.299 568.168C311.935 568.778 311.601 569.458 311.297 570.208C311.029 570.883 310.678 571.81 310.242 572.989C309.832 574.172 309.41 575.457 308.974 576.847C308.565 578.239 308.203 579.664 307.891 581.12C307.581 582.551 307.39 583.879 307.316 585.103C307.268 586.331 307.388 587.369 307.676 588.219C307.967 589.042 308.509 589.53 309.304 589.681C310.506 589.936 311.512 590.074 312.323 590.097C313.163 590.096 313.852 590.038 314.392 589.921C314.931 589.805 315.357 589.648 315.671 589.451C315.987 589.228 316.237 589.01 316.421 588.796C316.909 588.254 317.43 587.544 317.985 586.669C318.541 585.793 319.039 584.95 319.481 584.139C319.949 583.331 320.337 582.645 320.643 582.079C320.95 581.514 321.102 581.244 321.099 581.27C321.092 581.322 321.042 581.617 320.949 582.157C320.884 582.674 320.793 583.305 320.673 584.051C320.583 584.775 320.475 585.536 320.35 586.334C320.25 587.135 320.152 587.818 320.055 588.383C319.971 588.845 319.881 589.359 319.784 589.924C319.697 590.412 319.599 590.99 319.489 591.659C319.406 592.331 319.288 593.064 319.137 593.858C318.061 593.646 317.034 593.465 316.055 593.317C315.076 593.169 314.212 593.048 313.463 592.955C312.584 592.845 311.768 592.757 311.016 592.689C310.211 592.615 309.276 592.538 308.21 592.458C307.299 592.397 306.167 592.321 304.814 592.232C303.464 592.116 301.903 592 300.133 591.885C300.385 591.549 300.595 591.234 300.763 590.94C300.956 590.649 301.105 590.405 301.208 590.208C301.344 589.962 301.436 589.751 301.484 589.573C301.742 588.765 302.002 587.735 302.263 586.481C302.527 585.202 302.775 583.842 303.007 582.402C303.265 580.964 303.487 579.496 303.674 577.997C303.89 576.476 304.065 575.067 304.201 573.772C304.336 572.477 304.424 571.346 304.466 570.38C304.533 569.418 304.538 568.749 304.479 568.374C304.402 567.945 304.298 567.512 304.169 567.076C304.059 566.695 303.91 566.309 303.723 565.918C303.564 565.505 303.36 565.138 303.112 564.819ZM143.555 593.036C143.091 593.818 142.677 594.501 142.316 595.086C141.954 595.671 141.643 596.17 141.381 596.583C141.088 597.045 140.839 597.46 140.636 597.829C140.471 598.097 140.255 598.464 139.987 598.929C139.725 599.342 139.395 599.892 138.994 600.577C138.623 601.239 138.136 602.097 137.532 603.15C137.419 602.165 137.239 601.29 136.993 600.524C136.748 599.759 136.465 599.081 136.145 598.49C135.825 597.899 135.466 597.408 135.068 597.017C134.7 596.604 134.324 596.255 133.939 595.971C133.047 595.335 132.075 594.925 131.022 594.742C129.617 594.645 128.489 594.741 127.64 595.029C126.82 595.294 126.198 595.65 125.775 596.095C125.355 596.516 125.1 596.982 125.01 597.496C124.923 597.984 124.936 598.405 125.049 598.761C125.14 599.087 125.547 599.505 126.271 600.015C127.02 600.528 127.917 601.125 128.961 601.807C130.033 602.465 131.174 603.211 132.382 604.044C133.594 604.851 134.692 605.722 135.678 606.659C136.693 607.572 137.517 608.541 138.15 609.565C138.813 610.566 139.118 611.588 139.067 612.631C138.98 613.959 138.819 615.146 138.584 616.193C138.349 617.239 137.874 618.099 137.161 618.771C136.447 619.443 135.404 619.917 134.031 620.192C132.684 620.47 130.855 620.518 128.542 620.334C126.152 620.142 124.217 619.769 122.737 619.218C121.257 618.666 120.078 618.02 119.199 617.281C118.346 616.545 117.734 615.773 117.362 614.966C117.016 614.162 116.782 613.411 116.659 612.713C116.539 611.99 116.471 611.378 116.454 610.877C116.441 610.35 116.351 610.024 116.183 609.898C115.992 609.743 115.8 609.601 115.606 609.472C115.438 609.346 115.255 609.232 115.058 609.128C114.864 608.999 114.669 608.883 114.472 608.78L125.979 608.363C125.268 608.8 124.705 609.215 124.288 609.609C123.898 610.007 123.591 610.362 123.368 610.675C123.113 611.037 122.926 611.381 122.807 611.708C122.71 612.063 122.77 612.53 122.986 613.108C123.203 613.686 123.525 614.264 123.951 614.842C124.407 615.397 124.95 615.885 125.58 616.304C126.21 616.724 126.89 616.953 127.62 616.992C128.534 617.027 129.298 616.899 129.912 616.608C130.528 616.291 131.014 615.866 131.369 615.333C131.75 614.803 132.008 614.206 132.144 613.54C132.279 612.875 132.297 612.208 132.196 611.539C132.125 610.848 131.944 610.195 131.653 609.582C131.365 608.942 131 608.398 130.557 607.949C130.157 607.585 129.509 607.202 128.614 606.802C127.745 606.405 126.763 605.968 125.667 605.49C124.598 605.016 123.496 604.485 122.362 603.897C121.254 603.313 120.262 602.639 119.387 601.873C118.537 601.112 117.882 600.256 117.423 599.306C116.99 598.36 116.915 597.275 117.199 596.051C117.435 595.004 117.88 594.167 118.535 593.54C119.22 592.891 120.027 592.414 120.957 592.11C121.917 591.783 122.952 591.584 124.063 591.513C125.2 591.444 126.338 591.468 127.479 591.584C128.648 591.677 129.783 591.832 130.885 592.048C132.012 592.267 133.022 592.485 133.913 592.701C134.805 592.917 135.555 593.115 136.162 593.296C136.798 593.454 137.192 593.555 137.344 593.6C138.01 593.736 138.683 593.807 139.365 593.813C139.965 593.835 140.626 593.799 141.346 593.705C142.096 593.589 142.832 593.366 143.555 593.036ZM150.5 595.751C151.107 595.512 151.787 595.321 152.539 595.179C153.295 595.01 154.068 594.91 154.86 594.877C155.654 594.819 156.441 594.825 157.219 594.896C158.024 594.97 158.765 595.128 159.443 595.369C161.43 596.063 163.044 597.117 164.285 598.531C165.526 599.946 166.418 601.526 166.961 603.274C167.531 605.024 167.761 606.864 167.652 608.792C167.572 610.698 167.19 612.5 166.506 614.2C166.286 614.697 165.954 615.259 165.508 615.886C165.127 616.416 164.614 617.061 163.968 617.82C163.326 618.553 162.504 619.356 161.503 620.229C161.652 620.72 161.812 621.12 161.983 621.43C162.184 621.718 162.379 621.939 162.57 622.094C162.783 622.278 162.99 622.409 163.19 622.486C163.394 622.538 163.638 622.581 163.922 622.617C164.154 622.646 164.427 622.666 164.741 622.679C165.083 622.669 165.454 622.637 165.855 622.582L159.18 626.868C159.154 626.445 159.109 626.071 159.044 625.748C159.002 625.455 158.968 625.201 158.942 624.988L158.782 624.377C158.695 624.235 158.612 624.054 158.535 623.835C158.45 623.667 158.358 623.459 158.258 623.21C158.158 622.961 158.022 622.682 157.851 622.372C156.145 622.789 154.61 623.005 153.243 623.018C151.903 623.035 150.7 622.898 149.634 622.608C148.564 622.343 147.626 621.977 146.818 621.509C146.014 621.015 145.319 620.483 144.734 619.911C143.38 618.562 142.394 616.89 141.776 614.898C141.142 612.194 140.998 609.775 141.342 607.64C141.716 605.482 142.369 603.608 143.302 602.019C144.238 600.403 145.349 599.072 146.634 598.025C147.945 596.981 149.234 596.223 150.5 595.751ZM153.783 616.157C153.408 616.006 153.051 615.922 152.712 615.906C152.425 615.896 152.129 615.951 151.826 616.071C151.522 616.191 151.28 616.449 151.099 616.846C151.393 617.224 151.668 617.547 151.923 617.815C152.208 618.06 152.445 618.261 152.636 618.416C152.875 618.603 153.091 618.761 153.285 618.89C153.631 619.064 153.98 619.213 154.332 619.335C154.636 619.426 154.968 619.493 155.33 619.539C155.721 619.561 156.096 619.503 156.454 619.364C156.263 618.789 156.01 618.298 155.693 617.891C155.405 617.462 155.119 617.124 154.835 616.879C154.505 616.575 154.155 616.335 153.783 616.157ZM149.848 614.25C150.371 613.633 150.909 613.214 151.461 612.994C152.013 612.775 152.53 612.629 153.011 612.558C153.567 612.522 154.127 612.552 154.693 612.649C155.219 612.846 155.735 613.133 156.239 613.511C156.668 613.853 157.109 614.315 157.562 614.896C158.017 615.451 158.412 616.183 158.745 617.09C159.236 616.522 159.626 615.914 159.917 615.268C160.207 614.622 160.438 614.034 160.609 613.504C160.793 612.871 160.923 612.244 161.001 611.624C161.068 610.662 161.09 609.641 161.067 608.562C161.044 607.483 160.942 606.408 160.761 605.335C160.605 604.266 160.366 603.239 160.042 602.254C159.719 601.269 159.289 600.402 158.752 599.653C158.242 598.907 157.607 598.316 156.847 597.88C156.114 597.448 155.247 597.248 154.245 597.281C153.141 597.3 152.194 597.629 151.407 598.265C150.645 598.905 150.009 599.692 149.499 600.626C149.018 601.537 148.656 602.541 148.415 603.64C148.202 604.715 148.092 605.699 148.086 606.591C148.074 607.324 148.134 608.105 148.266 608.936C148.39 609.633 148.564 610.442 148.791 611.363C149.017 612.283 149.37 613.246 149.848 614.25ZM169.968 597.468C170.724 597.72 171.368 597.918 171.901 598.063C172.434 598.208 172.879 598.329 173.234 598.426C173.641 598.529 173.987 598.598 174.271 598.634C174.555 598.669 174.944 598.705 175.439 598.74C175.881 598.769 176.438 598.825 177.11 598.909C177.785 598.967 178.643 599.034 179.683 599.111C179.037 599.451 178.516 599.74 178.118 599.979C177.721 600.218 177.419 600.43 177.213 600.614C176.951 600.818 176.785 600.994 176.714 601.143C176.649 601.24 176.549 601.621 176.414 602.286C176.282 602.926 176.127 603.746 175.95 604.748C175.802 605.726 175.663 606.838 175.534 608.081C175.409 609.299 175.319 610.548 175.265 611.827C175.236 613.109 175.264 614.359 175.348 615.577C175.436 616.769 175.619 617.828 175.897 618.755C176.201 619.685 176.607 620.431 177.114 620.993C177.648 621.558 178.336 621.827 179.179 621.801C180.283 621.781 181.228 621.361 182.013 620.54C182.797 619.72 183.438 618.684 183.935 617.434C184.458 616.187 184.849 614.832 185.11 613.368C185.401 611.882 185.587 610.488 185.671 609.187C185.783 607.862 185.822 606.712 185.786 605.737C185.75 604.761 185.682 604.149 185.581 603.901C185.459 603.623 185.289 603.3 185.072 602.932C184.901 602.622 184.67 602.265 184.379 601.861C184.091 601.432 183.755 600.97 183.371 600.476C184.169 600.602 184.889 600.718 185.532 600.824C186.178 600.905 186.719 600.985 187.155 601.066C187.669 601.156 188.13 601.24 188.541 601.317C188.951 601.394 189.463 601.498 190.077 601.627C190.587 601.743 191.24 601.876 192.034 602.028C192.855 602.183 193.827 602.382 194.951 602.627C194.499 602.676 194.12 602.773 193.813 602.919C193.532 603.067 193.301 603.235 193.12 603.423C192.91 603.633 192.752 603.849 192.646 604.072C192.542 604.269 192.401 604.882 192.22 605.909C192.069 606.913 191.864 608.134 191.606 609.572C191.377 610.987 191.094 612.526 190.755 614.19C190.42 615.827 190.017 617.378 189.546 618.841C189.101 620.308 188.586 621.595 188.002 622.704C187.444 623.815 186.801 624.548 186.075 624.904C185.012 625.428 183.92 625.764 182.8 625.913C181.682 626.036 180.566 626.042 179.452 625.929C178.34 625.791 177.253 625.563 176.191 625.247C175.157 624.909 174.167 624.536 173.22 624.129C172.251 623.694 171.498 622.891 170.961 621.722C170.451 620.556 170.093 619.213 169.889 617.691C169.714 616.148 169.642 614.512 169.674 612.783C169.734 611.033 169.839 609.353 169.987 607.744C170.16 606.139 170.341 604.692 170.527 603.403C170.743 602.091 170.906 601.101 171.016 600.433C171.057 600.097 171.046 599.767 170.981 599.444C170.939 599.15 170.834 598.836 170.666 598.5C170.527 598.141 170.294 597.797 169.968 597.468ZM199.961 602.228C201.243 602.467 202.321 602.666 203.193 602.828C204.094 602.966 204.84 603.085 205.432 603.185C206.1 603.295 206.669 603.366 207.137 603.398C207.605 603.43 208.247 603.444 209.061 603.441C209.742 603.447 210.648 603.442 211.779 603.425C212.938 603.386 214.376 603.329 216.091 603.254C215.422 603.774 214.89 604.259 214.493 604.708C214.124 605.134 213.829 605.504 213.606 605.818C213.348 606.205 213.162 606.537 213.05 606.811C212.966 607.063 212.937 607.716 212.963 608.769C212.989 609.822 213.056 611.076 213.163 612.533C213.274 613.964 213.397 615.501 213.533 617.146C213.673 618.764 213.824 620.291 213.986 621.729C214.151 623.14 214.302 624.353 214.438 625.367C214.603 626.359 214.739 626.953 214.846 627.15C215.166 627.741 215.366 628.133 215.447 628.327C215.531 628.495 215.694 628.66 215.937 628.821C216.033 628.886 216.192 628.984 216.411 629.117C216.605 629.246 216.861 629.409 217.177 629.606C217.52 629.806 217.949 630.043 218.466 630.317C217.452 630.243 216.581 630.174 215.855 630.11C215.131 630.02 214.535 629.959 214.067 629.927C213.521 629.885 213.052 629.853 212.662 629.83C212.274 629.782 211.806 629.75 211.257 629.734C210.785 629.728 210.171 629.704 209.415 629.662C208.685 629.624 207.826 629.569 206.838 629.498C207.4 629.201 207.853 628.93 208.199 628.684C208.573 628.416 208.864 628.189 209.071 628.005C209.31 627.773 209.481 627.558 209.584 627.361C209.665 627.134 209.747 626.79 209.831 626.329C209.908 625.918 209.976 625.376 210.033 624.7C210.095 624 210.143 623.087 210.178 621.963L199.853 621.739C199.54 622.147 199.297 622.51 199.126 622.83C198.959 623.124 198.834 623.384 198.754 623.61C198.641 623.885 198.586 624.114 198.589 624.298C198.615 624.511 198.675 624.768 198.769 625.068C198.866 625.343 199.008 625.676 199.196 626.066C199.412 626.435 199.737 626.882 200.17 627.408C199.527 627.302 198.87 627.207 198.198 627.123C197.526 627.039 196.904 626.975 196.332 626.93C195.657 626.872 194.995 626.816 194.346 626.761C193.697 626.707 192.955 626.654 192.122 626.602C191.418 626.567 190.596 626.53 189.656 626.492C188.693 626.424 187.663 626.375 186.564 626.343C187.275 626.116 187.882 625.877 188.386 625.625C188.893 625.347 189.319 625.085 189.665 624.84C190.065 624.575 190.412 624.316 190.706 624.064C190.919 623.828 191.355 623.279 192.014 622.416C192.675 621.528 193.423 620.479 194.256 619.271C195.114 618.066 196.01 616.773 196.943 615.394C197.902 614.017 198.772 612.722 199.553 611.507C200.337 610.266 200.983 609.192 201.49 608.284C201.996 607.376 202.268 606.78 202.303 606.496C202.293 606.153 202.211 605.763 202.055 605.323C201.92 604.939 201.687 604.49 201.357 603.977C201.053 603.466 200.588 602.884 199.961 602.228ZM210.07 619.037C210.028 618.113 209.982 617.32 209.933 616.658C209.888 615.97 209.854 615.401 209.831 614.952C209.792 614.422 209.771 613.961 209.767 613.567C209.735 613.195 209.702 612.719 209.67 612.137C209.628 611.633 209.574 611.01 209.509 610.267C209.473 609.502 209.416 608.589 209.338 607.53C207.498 610.292 206.064 612.436 205.034 613.961C204.033 615.463 203.305 616.567 202.85 617.271C202.301 618.095 201.991 618.581 201.92 618.73L210.07 619.037ZM218.974 603.18C219.862 603.422 220.637 603.623 221.3 603.784C221.962 603.946 222.509 604.079 222.942 604.186C223.453 604.302 223.887 604.395 224.246 604.466C224.653 604.57 225.16 604.606 225.767 604.577C226.4 604.551 227.072 604.53 227.783 604.513C228.496 604.471 229.233 604.458 229.992 604.474C230.751 604.49 231.475 604.58 232.163 604.744C232.621 604.854 233.203 605.031 233.907 605.276C234.611 605.522 235.343 605.862 236.102 606.298C236.887 606.737 237.66 607.279 238.419 607.925C239.178 608.571 239.842 609.349 240.411 610.259C240.98 611.17 241.413 612.221 241.711 613.413C242.009 614.605 242.088 615.966 241.95 617.497C241.744 619.781 241.28 621.823 240.557 623.622C239.834 625.422 238.874 626.916 237.676 628.105C236.504 629.297 235.096 630.172 233.452 630.728C231.808 631.284 229.948 631.472 227.871 631.292C226.279 631.225 224.714 631.148 223.176 631.062C222.524 631.033 221.834 630.986 221.107 630.922C220.406 630.861 219.705 630.8 219.004 630.739C218.307 630.652 217.636 630.555 216.993 630.449C216.351 630.342 215.761 630.23 215.225 630.11C215.855 629.9 216.368 629.675 216.765 629.436C217.188 629.2 217.516 628.992 217.749 628.811C218.013 628.581 218.21 628.37 218.339 628.176C218.427 627.898 218.573 627.352 218.78 626.538C218.944 625.85 219.171 624.868 219.462 623.592C219.752 622.316 220.126 620.578 220.584 618.378L221.159 615.655C221.501 613.965 221.726 612.576 221.836 611.488C221.971 610.403 222.051 609.547 222.077 608.92C222.089 608.187 222.052 607.644 221.965 607.292C221.897 606.995 221.745 606.635 221.509 606.212C221.289 605.869 220.974 605.45 220.564 604.952C220.182 604.432 219.652 603.842 218.974 603.18ZM225.375 618.463C225.141 620.77 225.036 622.554 225.063 623.817C225.118 625.058 225.225 625.99 225.384 626.613C225.584 627.32 225.844 627.759 226.164 627.93C226.655 627.992 227.237 627.854 227.908 627.518C228.583 627.156 229.273 626.573 229.976 625.768C230.706 624.967 231.398 623.938 232.054 622.681C232.735 621.427 233.301 619.936 233.752 618.208C234.204 616.48 234.333 614.921 234.138 613.532C233.944 612.143 233.606 610.96 233.124 609.981C232.646 608.977 232.125 608.204 231.563 607.661C231.004 607.093 230.569 606.789 230.259 606.751C229.898 606.706 229.562 606.769 229.252 606.94C228.945 607.086 228.491 607.462 227.891 608.07C227.587 608.399 227.29 608.887 227 609.533C226.745 610.105 226.492 610.874 226.24 611.84C225.988 612.806 225.792 614.067 225.65 615.624L225.375 618.463Z" fill="black"/>
</g>
<g filter="url(#filter3_ii_108_156)">
<path d="M301.569 197.638L268.114 1H177.785H87.4553L54 197.638L144.329 319.001H211.24L301.569 197.638Z" fill="#AF80F4"/>
</g>
<path d="M301.569 197.638L268.114 1H177.785H87.4553L54 197.638L144.329 319.001H211.24L301.569 197.638Z" stroke="black" stroke-opacity="0.4" stroke-width="2"/>
<defs>
<filter id="filter0_ii_108_156" x="29.9515" y="229.874" width="300.097" height="535.062" filterUnits="userSpaceOnUse" color-interpolation-filters="sRGB">
<feFlood flood-opacity="0" result="BackgroundImageFix"/>
<feBlend mode="normal" in="SourceGraphic" in2="BackgroundImageFix" result="shape"/>
<feColorMatrix in="SourceAlpha" type="matrix" values="0 0 0 0 0 0 0 0 0 0 0 0 0 0 0 0 0 0 127 0" result="hardAlpha"/>
<feOffset dy="18"/>
<feGaussianBlur stdDeviation="5"/>
<feComposite in2="hardAlpha" operator="arithmetic" k2="-1" k3="1"/>
<feColorMatrix type="matrix" values="0 0 0 0 0 0 0 0 0 0 0 0 0 0 0 0 0 0 0.25 0"/>
<feBlend mode="normal" in2="shape" result="effect1_innerShadow_108_156"/>
<feColorMatrix in="SourceAlpha" type="matrix" values="0 0 0 0 0 0 0 0 0 0 0 0 0 0 0 0 0 0 127 0" result="hardAlpha"/>
<feOffset dy="-22"/>
<feGaussianBlur stdDeviation="9.5"/>
<feComposite in2="hardAlpha" operator="arithmetic" k2="-1" k3="1"/>
<feColorMatrix type="matrix" values="0 0 0 0 0 0 0 0 0 0 0 0 0 0 0 0 0 0 0.39 0"/>
<feBlend mode="normal" in2="effect1_innerShadow_108_156" result="effect2_innerShadow_108_156"/>
</filter>
<filter id="filter1_d_108_156" x="7" y="490.5" width="345.5" height="193" filterUnits="userSpaceOnUse" color-interpolation-filters="sRGB">
<feFlood flood-opacity="0" result="BackgroundImageFix"/>
<feColorMatrix in="SourceAlpha" type="matrix" values="0 0 0 0 0 0 0 0 0 0 0 0 0 0 0 0 0 0 127 0" result="hardAlpha"/>
<feOffset dy="4"/>
<feGaussianBlur stdDeviation="12.5"/>
<feComposite in2="hardAlpha" operator="out"/>
<feColorMatrix type="matrix" values="0 0 0 0 0 0 0 0 0 0 0 0 0 0 0 0 0 0 0.62 0"/>
<feBlend mode="normal" in2="BackgroundImageFix" result="effect1_dropShadow_108_156"/>
<feBlend mode="normal" in="SourceGraphic" in2="effect1_dropShadow_108_156" result="shape"/>
</filter>
<filter id="filter2_d_108_156" x="37.031" y="532.188" width="289.961" height="121.847" filterUnits="userSpaceOnUse" color-interpolation-filters="sRGB">
<feFlood flood-opacity="0" result="BackgroundImageFix"/>
<feColorMatrix in="SourceAlpha" type="matrix" values="0 0 0 0 0 0 0 0 0 0 0 0 0 0 0 0 0 0 127 0" result="hardAlpha"/>
<feOffset dy="4"/>
<feGaussianBlur stdDeviation="2"/>
<feComposite in2="hardAlpha" operator="out"/>
<feColorMatrix type="matrix" values="0 0 0 0 0 0 0 0 0 0 0 0 0 0 0 0 0 0 0.25 0"/>
<feBlend mode="normal" in2="BackgroundImageFix" result="effect1_dropShadow_108_156"/>
<feBlend mode="normal" in="SourceGraphic" in2="effect1_dropShadow_108_156" result="shape"/>
</filter>
<filter id="filter3_ii_108_156" x="52.9424" y="-16" width="249.684" height="352.001" filterUnits="userSpaceOnUse" color-interpolation-filters="sRGB">
<feFlood flood-opacity="0" result="BackgroundImageFix"/>
<feBlend mode="normal" in="SourceGraphic" in2="BackgroundImageFix" result="shape"/>
<feColorMatrix in="SourceAlpha" type="matrix" values="0 0 0 0 0 0 0 0 0 0 0 0 0 0 0 0 0 0 127 0" result="hardAlpha"/>
<feOffset dy="16"/>
<feGaussianBlur stdDeviation="18.5"/>
<feComposite in2="hardAlpha" operator="arithmetic" k2="-1" k3="1"/>
<feColorMatrix type="matrix" values="0 0 0 0 0.33559 0 0 0 0 0.0258999 0 0 0 0 0.7141 0 0 0 1 0"/>
<feBlend mode="normal" in2="shape" result="effect1_innerShadow_108_156"/>
<feColorMatrix in="SourceAlpha" type="matrix" values="0 0 0 0 0 0 0 0 0 0 0 0 0 0 0 0 0 0 127 0" result="hardAlpha"/>
<feOffset dy="-16"/>
<feGaussianBlur stdDeviation="18.5"/>
<feComposite in2="hardAlpha" operator="arithmetic" k2="-1" k3="1"/>
<feColorMatrix type="matrix" values="0 0 0 0 0.337255 0 0 0 0 0.027451 0 0 0 0 0.713726 0 0 0 1 0"/>
<feBlend mode="normal" in2="effect1_innerShadow_108_156" result="effect2_innerShadow_108_156"/>
</filter>
<radialGradient id="paint0_radial_108_156" cx="0" cy="0" r="1" gradientUnits="userSpaceOnUse" gradientTransform="translate(194.571 601.47) rotate(68.4082) scale(105.144 142.761)">
<stop stop-color="#AF80F4"/>
<stop offset="0.994962" stop-opacity="0"/>
</radialGradient>
</defs>
</svg>
