<svg width="292" height="291" viewBox="0 0 292 291" fill="none" xmlns="http://www.w3.org/2000/svg">
<g filter="url(#filter0_i_104_174)">
<path d="M93.2014 32.387C140.118 27.6304 132.89 18.1276 146.5 17.0031C160.11 18.1277 152.882 27.6304 199.799 32.387C246.758 37.148 252.154 21.97 262.075 43.046C263.718 46.5351 278.811 104.332 246.329 180.816C214.294 256.251 148.304 284.231 146.5 284.984C144.696 284.231 78.7063 256.251 46.6706 180.816C14.1894 104.332 29.282 46.5351 30.9246 43.046C40.8464 21.97 46.2419 37.1481 93.2014 32.387Z" fill="#728C82"/>
</g>
<path d="M146.538 285C146.538 285 79.1517 257.3 46.6706 180.816C14.1894 104.332 29.282 46.5351 30.9246 43.046C40.8464 21.97 46.2419 37.1481 93.2014 32.387C140.161 27.626 132.877 18.1101 146.538 17M146.462 285C146.462 285 213.848 257.3 246.329 180.816C278.811 104.332 263.718 46.5351 262.075 43.046C252.154 21.97 246.758 37.148 199.799 32.387C152.839 27.626 160.123 18.1101 146.462 17" stroke="#E9E3DF" stroke-width="9" stroke-linecap="square"/>
<path d="M146.538 285C146.538 285 79.1517 257.3 46.6706 180.816C14.1894 104.332 29.282 46.5351 30.9246 43.046C40.8464 21.97 46.2419 37.1481 93.2014 32.387C140.161 27.626 132.877 18.1101 146.538 17M146.462 285C146.462 285 213.848 257.3 246.329 180.816C278.811 104.332 263.718 46.5351 262.075 43.046C252.154 21.97 246.758 37.148 199.799 32.387C152.839 27.626 160.123 18.1101 146.462 17" stroke="url(#paint0_linear_104_174)" stroke-opacity="0.54" stroke-width="9" stroke-linecap="square"/>
<g filter="url(#filter1_d_104_174)">
<path d="M238.199 93.523L266.277 110.723L259.5 149.714L245.5 189L224.655 177.361L186.522 163.538L148.389 149.714L60.384 132.871L30.5 127.5L25.8756 100.077L25.8756 67.351L30.5 40L78.5339 49.2012L162.203 67.351L238.199 93.523Z" fill="#E9E3DF"/>
<path d="M243.865 184.651L226.118 174.742C225.977 174.663 225.83 174.596 225.678 174.541L187.544 160.717L149.411 146.894C149.262 146.839 149.108 146.797 148.953 146.767L60.948 129.924L60.9147 129.918L33.1074 124.921L28.8756 99.8259L28.8756 67.6028L32.9469 43.5233L77.9336 52.1408L161.394 70.2452L236.911 96.2526L262.973 112.217L256.588 148.948L243.865 184.651Z" stroke="#E9E3DF" stroke-opacity="0.4" stroke-width="6" stroke-miterlimit="1" stroke-linejoin="round"/>
<path d="M243.865 184.651L226.118 174.742C225.977 174.663 225.83 174.596 225.678 174.541L187.544 160.717L149.411 146.894C149.262 146.839 149.108 146.797 148.953 146.767L60.948 129.924L60.9147 129.918L33.1074 124.921L28.8756 99.8259L28.8756 67.6028L32.9469 43.5233L77.9336 52.1408L161.394 70.2452L236.911 96.2526L262.973 112.217L256.588 148.948L243.865 184.651Z" stroke="url(#paint1_radial_104_174)" stroke-width="6" stroke-miterlimit="1" stroke-linejoin="round"/>
</g>
<g filter="url(#filter2_d_104_174)">
<path d="M50.7026 72.4104C51.8451 72.9678 52.8748 73.433 53.7918 73.8062C54.7478 74.1548 55.552 74.4358 56.2047 74.6494C56.9772 74.9233 57.6687 75.1123 58.2793 75.2163C59.0486 75.356 60.0264 75.4593 61.2125 75.526C62.3987 75.5927 63.6484 75.6737 64.9616 75.769C66.2748 75.8642 67.5649 75.9877 68.8321 76.1394C70.0992 76.291 71.1826 76.5181 72.0821 76.8206C72.9817 77.1231 73.9003 77.5634 74.8379 78.1414C75.7827 78.6876 76.6354 79.3466 77.396 80.1183C78.1638 80.8583 78.7759 81.6967 79.2324 82.6336C79.7207 83.5776 79.9263 84.5915 79.8493 85.6752C79.7794 86.7272 79.4376 87.8014 78.8239 88.8979C78.2173 89.9626 77.4078 90.9649 76.3956 91.905C75.3904 92.8132 74.2126 93.5992 72.862 94.263C71.5115 94.9267 70.0733 95.3872 68.5473 95.6444C67.3429 95.8072 66.0646 95.8532 64.7125 95.7825C63.5581 95.723 62.2274 95.557 60.7205 95.2847C59.2525 94.9877 57.7321 94.4788 56.1593 93.7579C55.7297 94.6288 55.4097 95.4577 55.1993 96.2445C55.0278 97.0067 54.906 97.6967 54.8337 98.3144C54.7718 99.0345 54.7559 99.6982 54.7861 100.306C54.848 100.92 54.9361 101.641 55.0504 102.467C55.1616 103.159 55.2723 104.002 55.3827 104.994C55.5319 105.962 55.7197 107.055 55.946 108.274C55.3743 108.145 54.815 108.036 54.2679 107.947C53.7281 107.825 53.2322 107.73 52.7805 107.662C52.2652 107.579 51.7817 107.504 51.3299 107.436C50.8146 107.353 50.2287 107.288 49.5721 107.24C49.0179 107.182 48.3137 107.124 47.4594 107.065C46.6369 107.014 45.696 106.969 44.6369 106.931C45.5182 106.128 46.2387 105.373 46.7985 104.664C47.3971 103.932 47.8596 103.285 48.1859 102.724C48.5654 102.076 48.8512 101.473 49.0434 100.915C49.1823 100.446 49.3717 99.6045 49.6115 98.3905C49.883 97.1837 50.1816 95.7828 50.5071 94.1878C50.8326 92.5927 51.1602 90.9147 51.4897 89.1537C51.8192 87.3927 52.1078 85.7393 52.3555 84.1935C52.6104 82.6159 52.7993 81.2571 52.9224 80.1169C53.0772 78.984 53.1463 78.2321 53.1297 77.8613C53.0955 77.4199 52.9733 76.9252 52.7629 76.3774C52.6017 75.9074 52.3437 75.3488 51.9888 74.7018C51.6728 74.0301 51.2441 73.2663 50.7026 72.4104ZM58.4519 84.0137C58.3487 84.3241 58.2577 84.654 58.1791 85.0034C58.0291 85.6703 57.8838 86.5385 57.7432 87.6079C57.8441 88.1978 58.014 88.7032 58.2529 89.124C58.5237 89.5519 58.8282 89.904 59.1664 90.1803C59.5364 90.4638 59.9206 90.6837 60.3192 90.8401C60.7178 90.9965 61.1235 91.1212 61.5363 91.2141C62.4962 91.3967 63.5466 91.3995 64.6875 91.2225C66.2207 90.9335 67.3981 90.2975 68.2198 89.3146C69.0416 88.3317 69.6005 87.2563 69.8967 86.0884C70.1928 84.9205 70.2294 83.7943 70.0063 82.7097C69.815 81.6323 69.4569 80.8511 68.9321 80.366C68.474 80.0293 67.8444 79.7876 67.0433 79.6407C66.3375 79.5152 65.4248 79.4934 64.3053 79.5752C63.1859 79.6569 61.771 79.9392 60.0608 80.4219C59.7734 80.9578 59.5321 81.4373 59.3368 81.8605C59.1414 82.2837 58.9727 82.6628 58.8306 82.9978C58.6813 83.3647 58.5551 83.7033 58.4519 84.0137ZM79.292 78.1426C80.2725 78.53 81.1614 78.8802 81.9585 79.193C82.7628 79.4741 83.4595 79.7143 84.0486 79.9135C84.7258 80.166 85.3272 80.3848 85.8528 80.5698C86.4983 80.8151 87.5237 80.929 88.929 80.9116C90.3414 80.8624 91.8738 80.8735 93.526 80.945C95.2171 80.9918 96.9078 81.1887 98.5981 81.5357C100.296 81.8509 101.768 82.4992 103.015 83.4805C104.263 84.4619 105.256 85.386 105.995 86.253C106.734 87.12 107.272 87.9918 107.609 88.8683C107.984 89.7203 108.19 90.5841 108.227 91.4598C108.263 92.3355 108.187 93.2692 107.997 94.2609C107.636 95.7146 106.969 97.0492 105.995 98.2648C105.58 98.7721 105.064 99.2897 104.444 99.8177C103.864 100.321 103.176 100.784 102.38 101.205C101.585 101.627 100.669 101.988 99.6341 102.289C98.6305 102.597 97.4825 102.806 96.1899 102.915C97.2864 103.529 98.1621 104.16 98.8171 104.808C99.5038 105.463 100.039 106.05 100.422 106.57C100.88 107.207 101.198 107.796 101.376 108.336C101.576 109.082 101.685 109.707 101.705 110.212C101.725 110.717 101.701 111.195 101.632 111.647C101.603 112.074 101.586 112.521 101.581 112.987C101.576 113.453 101.668 114.008 101.857 114.651C102.011 115.153 102.21 115.681 102.452 116.236C102.676 116.72 102.942 117.247 103.247 117.816C103.585 118.393 104.021 118.975 104.556 119.562C103.66 119.394 102.83 119.224 102.068 119.052C101.338 118.888 100.703 118.745 100.163 118.624C99.5276 118.481 98.9277 118.329 98.3632 118.169C97.7987 118.008 97.0877 117.832 96.2303 117.639C95.4998 117.474 94.563 117.264 93.4197 117.006C92.3082 116.756 90.9549 116.468 89.3598 116.143C90.18 115.76 90.8731 115.349 91.4392 114.909C92.0053 114.469 92.4654 114.056 92.8195 113.668C93.2196 113.224 93.5368 112.779 93.7711 112.331C94.1228 111.509 94.3387 110.623 94.4189 109.674C94.5023 108.858 94.4448 107.928 94.2463 106.882C94.0549 105.805 93.6095 104.67 92.9101 103.479C91.9534 103.43 91.1467 103.382 90.4901 103.334C89.8724 103.262 89.3341 103.208 88.8752 103.171C88.3528 103.12 87.9292 103.075 87.6045 103.035C87.3115 103.003 86.9868 102.963 86.6303 102.916C86.3373 102.884 86.009 102.86 85.6454 102.845C85.3207 102.805 85.0083 102.785 84.7082 102.784C84.3374 104.135 84.0694 105.326 83.9042 106.357C83.7462 107.356 83.6398 108.199 83.5851 108.888C83.5334 109.71 83.5227 110.425 83.5529 111.033C83.583 111.64 83.6803 112.246 83.8446 112.85C83.9669 113.345 84.1455 113.885 84.3806 114.472C84.6227 115.027 84.9304 115.513 85.3035 115.931C84.4778 115.745 83.6838 115.566 82.9217 115.395C82.1912 115.231 81.5279 115.065 80.9316 114.897C80.2329 114.74 79.5696 114.574 78.9416 114.399C78.3136 114.225 77.6026 114.048 76.8086 113.869C76.1417 113.719 75.3478 113.541 74.4268 113.333C73.5375 113.133 72.5653 112.931 71.5102 112.727C72.5288 112.055 73.3442 111.472 73.9564 110.975C74.5685 110.479 75.0481 110.053 75.395 109.697C75.7809 109.317 76.0413 108.975 76.1763 108.672C76.3541 108.178 76.6054 107.284 76.9302 105.989C77.2938 104.669 77.6844 103.156 78.1021 101.448C78.5197 99.7401 78.9393 97.9493 79.3609 96.0756C79.7825 94.2019 80.1597 92.4516 80.4924 90.8248C80.8322 89.1662 81.1184 87.7459 81.3511 86.5637C81.5837 85.3815 81.7199 84.628 81.7596 84.3033C81.7929 83.7102 81.7151 83.0921 81.5262 82.449C81.3864 81.8837 81.1498 81.2299 80.8164 80.4875C80.4829 79.7452 79.9748 78.9635 79.292 78.1426ZM93.5258 98.9625C93.8863 98.8435 94.1991 98.7136 94.4643 98.5731C94.7295 98.4326 94.9879 98.1738 95.2396 97.7966C95.4984 97.3878 95.7648 96.7971 96.0387 96.0245C96.3444 95.2592 96.7303 94.2116 97.1963 92.8817C97.6306 91.5447 97.789 90.3958 97.6715 89.4351C97.5858 88.4816 97.346 87.6936 96.9522 87.0711C96.5973 86.4241 96.1396 85.9374 95.5791 85.611C95.0575 85.2601 94.5744 85.0346 94.1297 84.9346C93.2405 84.7345 92.3064 84.8079 91.3275 85.1549C90.3485 85.5018 89.5331 86.0858 88.8813 86.9067C88.6296 87.2838 88.3331 87.9345 87.9917 88.8587C87.7106 89.6629 87.3898 90.7919 87.0294 92.2456C86.6689 93.6994 86.2842 95.6315 85.8753 98.0419C87.0392 98.504 88.0853 98.8228 89.0134 98.9982C89.9487 99.1419 90.7518 99.2059 91.4226 99.19C92.2206 99.2027 92.9216 99.1269 93.5258 98.9625ZM108.8 87.1344C111.008 87.6981 112.84 88.1602 114.293 88.5206C115.786 88.8565 116.993 89.128 117.914 89.3353L120.439 89.9034L134.634 93.0975C134.555 93.747 134.463 94.377 134.359 94.9876C134.294 95.5735 134.212 96.0888 134.112 96.5334C133.99 97.0733 133.863 97.5619 133.732 97.9994C133.6 98.4369 133.445 98.9025 133.267 99.3964C133.104 99.8267 132.933 100.289 132.755 100.783C132.577 101.276 132.348 101.775 132.068 102.28C132.009 100.465 131.699 99.0268 131.137 97.966C130.606 96.9125 130.006 96.0935 129.337 95.5091C128.555 94.8327 127.675 94.3678 126.698 94.1145C125.382 93.8851 124.34 93.7676 123.574 93.762C122.808 93.7564 122.186 93.8501 121.709 94.043C121.232 94.236 120.839 94.498 120.531 94.829C120.262 95.1355 119.966 95.486 119.644 95.8806C119.368 96.2189 119.061 96.7671 118.724 97.5253C118.415 98.1565 118.052 99.0259 117.636 100.133C117.252 101.248 116.777 102.693 116.211 104.467C117.125 104.406 117.862 104.322 118.42 104.214C119.01 104.113 119.481 104.019 119.835 103.931C120.227 103.819 120.52 103.702 120.715 103.579C120.885 103.417 121.154 103.11 121.522 102.659C121.813 102.258 122.203 101.711 122.692 101.021C123.213 100.337 123.861 99.382 124.638 98.1553C124.372 99.6305 124.129 100.86 123.908 101.845C123.693 102.798 123.534 103.579 123.43 104.19C123.273 104.888 123.164 105.448 123.103 105.868L122.695 107.678C122.545 108.345 122.341 109.25 122.084 110.393C121.866 111.512 121.596 112.936 121.273 114.665C121.156 113.404 121.014 112.405 120.847 111.666C120.718 110.903 120.582 110.322 120.438 109.923C120.277 109.453 120.119 109.117 119.964 108.915C119.756 108.802 119.469 108.67 119.102 108.521C118.76 108.411 118.319 108.295 117.779 108.173C117.271 108.059 116.602 107.992 115.772 107.972C115.284 109.697 114.95 111.107 114.771 112.201C114.63 113.271 114.575 114.109 114.605 114.716C114.614 115.419 114.697 115.938 114.855 116.274C115.077 116.624 115.595 116.991 116.409 117.375C117.231 117.726 118.185 118.008 119.272 118.219C120.398 118.405 121.568 118.469 122.783 118.408C123.998 118.348 125.132 118.053 126.186 117.522C126.988 117.069 127.874 116.468 128.844 115.718C129.658 115.067 130.581 114.224 131.615 113.189C132.681 112.16 133.787 110.875 134.936 109.331C134.487 110.732 134.124 111.901 133.846 112.84C133.607 113.753 133.391 114.489 133.199 115.046C132.986 115.699 132.824 116.196 132.713 116.539C132.627 116.92 132.458 117.449 132.206 118.126C132.007 118.715 131.71 119.516 131.315 120.528C130.959 121.516 130.492 122.779 129.912 124.317C128.412 124.012 126.992 123.726 125.651 123.458C124.317 123.158 123.139 122.909 122.115 122.712C120.901 122.473 119.782 122.254 118.759 122.057C117.711 121.821 116.541 121.608 115.249 121.418C114.124 121.231 112.784 121.03 111.231 120.814C109.71 120.605 108.019 120.408 106.159 120.223C106.804 118.099 107.372 116.092 107.865 114.201C108.396 112.285 108.841 110.6 109.202 109.146C109.62 107.439 109.977 105.851 110.274 104.383C111.254 100.766 111.855 97.7984 112.077 95.4792C112.299 93.1601 112.29 91.6401 112.052 90.9192C111.911 90.654 111.702 90.3233 111.424 89.9271C111.196 89.6087 110.867 89.2177 110.437 88.754C110.008 88.2904 109.462 87.7505 108.8 87.1344ZM139.458 93.6823C141.327 94.2699 142.973 94.7403 144.395 95.0936C145.849 95.4541 147.084 95.7487 148.1 95.9773C149.275 96.2417 150.299 96.4386 151.17 96.5681C152.081 96.6729 153.269 96.8067 154.734 96.9694C155.976 97.0822 157.579 97.2259 159.541 97.4006C161.511 97.5435 163.912 97.6999 166.743 97.8699C166.272 98.3311 165.842 98.8349 165.452 99.3811C165.101 99.9028 164.793 100.384 164.527 100.825C164.239 101.36 163.971 101.884 163.723 102.395C163.492 102.977 163.213 103.699 162.886 104.559C162.587 105.293 162.21 106.226 161.755 107.358C161.339 108.466 160.826 109.785 160.214 111.315C159.819 108.624 159.279 106.5 158.595 104.945C157.942 103.397 157.274 102.212 156.592 101.391C155.803 100.447 154.991 99.83 154.155 99.5418C152.916 99.2631 151.846 99.2727 150.945 99.5704C150.044 99.8681 149.254 100.341 148.574 100.989C147.933 101.612 147.386 102.34 146.932 103.172C146.485 103.972 146.121 104.774 145.84 105.579C145.566 106.351 145.342 107.051 145.167 107.679C144.999 108.276 144.875 108.681 144.793 108.897C145.919 109.083 146.873 109.215 147.657 109.291C148.441 109.367 149.066 109.407 149.532 109.412C150.1 109.407 150.557 109.376 150.904 109.321C151.437 109.174 151.981 108.979 152.536 108.737C153.021 108.512 153.535 108.228 154.08 107.883C154.656 107.546 155.191 107.099 155.683 106.542C155.235 107.643 154.846 108.556 154.516 109.282C154.217 110.016 153.97 110.594 153.775 111.018C153.526 111.529 153.354 111.924 153.258 112.203C153.13 112.474 152.961 112.853 152.752 113.34C152.557 113.763 152.317 114.31 152.033 114.98C151.748 115.65 151.409 116.491 151.014 117.503C150.783 116.751 150.508 116.122 150.188 115.616C149.875 115.078 149.572 114.643 149.28 114.311C148.932 113.932 148.585 113.62 148.239 113.376C147.855 113.156 147.439 112.929 146.991 112.694C146.6 112.506 146.129 112.3 145.579 112.076C145.068 111.828 144.505 111.584 143.891 111.346C143.569 113.075 143.332 114.574 143.18 115.841C143.036 117.076 142.918 118.117 142.828 118.965C142.74 119.946 142.689 120.768 142.673 121.432C142.689 122.103 142.789 122.843 142.974 123.652C143.117 124.352 143.35 125.171 143.672 126.111C144.033 127.027 144.523 128.038 145.142 129.145C144.542 128.843 143.9 128.582 143.216 128.361C142.532 128.14 141.923 127.953 141.39 127.8C140.73 127.618 140.095 127.475 139.485 127.371C138.842 127.26 138.129 127.167 137.346 127.09C136.696 127.011 135.945 126.942 135.09 126.883C134.236 126.824 133.33 126.771 132.374 126.722C133.035 126.304 133.601 125.864 134.072 125.403C134.543 124.941 134.904 124.522 135.156 124.145C135.454 123.712 135.684 123.28 135.848 122.849C135.965 122.475 136.167 121.653 136.453 120.383C136.746 119.081 137.069 117.569 137.423 115.847C137.785 114.093 138.151 112.24 138.524 110.289C138.896 108.337 139.24 106.513 139.555 104.815C139.878 103.086 140.127 101.607 140.303 100.379C140.511 99.1578 140.596 98.4095 140.558 98.134C140.502 97.7879 140.442 97.3905 140.376 96.9419C140.272 96.2178 139.966 95.1313 139.458 93.6823ZM161.629 99.0215C163.838 99.5852 165.669 100.047 167.123 100.408C168.616 100.744 169.822 101.015 170.743 101.222L173.268 101.79L187.464 104.985C187.385 105.634 187.293 106.264 187.189 106.875C187.124 107.461 187.041 107.976 186.941 108.42C186.82 108.96 186.693 109.449 186.561 109.887C186.429 110.324 186.275 110.79 186.097 111.283C185.933 111.714 185.762 112.176 185.585 112.67C185.407 113.164 185.178 113.663 184.897 114.167C184.839 112.352 184.528 110.914 183.966 109.853C183.436 108.8 182.836 107.981 182.167 107.396C181.385 106.72 180.505 106.255 179.528 106.002C178.211 105.772 177.17 105.655 176.404 105.649C175.638 105.644 175.016 105.737 174.539 105.93C174.062 106.123 173.669 106.385 173.361 106.716C173.092 107.023 172.796 107.373 172.474 107.768C172.197 108.106 171.891 108.654 171.553 109.412C171.244 110.044 170.882 110.913 170.466 112.021C170.081 113.135 169.606 114.58 169.04 116.354C169.955 116.293 170.691 116.209 171.249 116.101C171.839 116 172.311 115.906 172.664 115.818C173.056 115.706 173.35 115.589 173.544 115.466C173.714 115.304 173.983 114.997 174.352 114.547C174.642 114.145 175.032 113.599 175.521 112.908C176.042 112.224 176.691 111.269 177.467 110.042C177.202 111.518 176.959 112.747 176.737 113.732C176.523 114.685 176.364 115.466 176.26 116.077C176.102 116.776 175.993 117.335 175.932 117.755L175.525 119.565C175.375 120.232 175.171 121.137 174.914 122.28C174.695 123.399 174.425 124.823 174.103 126.552C173.986 125.291 173.844 124.292 173.676 123.554C173.548 122.791 173.412 122.209 173.268 121.81C173.107 121.34 172.949 121.004 172.794 120.802C172.586 120.689 172.299 120.558 171.932 120.408C171.59 120.298 171.148 120.182 170.609 120.06C170.1 119.946 169.432 119.879 168.602 119.859C168.114 121.584 167.78 122.994 167.6 124.088C167.46 125.158 167.405 125.996 167.435 126.603C167.443 127.306 167.527 127.825 167.685 128.161C167.906 128.511 168.424 128.878 169.239 129.262C170.061 129.613 171.015 129.895 172.102 130.106C173.228 130.293 174.398 130.356 175.613 130.295C176.828 130.235 177.962 129.94 179.015 129.409C179.818 128.956 180.704 128.355 181.673 127.605C182.487 126.954 183.411 126.111 184.445 125.076C185.51 124.047 186.617 122.762 187.765 121.218C187.317 122.619 186.953 123.788 186.675 124.727C186.436 125.641 186.221 126.376 186.029 126.933C185.815 127.586 185.653 128.084 185.543 128.426C185.457 128.807 185.288 129.336 185.035 130.013C184.836 130.602 184.539 131.403 184.145 132.415C183.789 133.403 183.321 134.666 182.742 136.204C181.242 135.9 179.822 135.613 178.481 135.345C177.147 135.045 175.968 134.796 174.945 134.599C173.731 134.36 172.612 134.141 171.589 133.944C170.541 133.709 169.371 133.495 168.079 133.305C166.953 133.118 165.614 132.917 164.061 132.701C162.54 132.492 160.849 132.295 158.989 132.11C159.633 129.986 160.202 127.979 160.694 126.088C161.225 124.172 161.671 122.487 162.032 121.033C162.449 119.326 162.806 117.738 163.103 116.27C164.084 112.653 164.685 109.685 164.907 107.366C165.128 105.047 165.12 103.527 164.882 102.806C164.741 102.541 164.532 102.21 164.254 101.814C164.025 101.496 163.696 101.105 163.267 100.641C162.837 100.177 162.291 99.6376 161.629 99.0215ZM207.77 106.601C208.882 106.851 209.84 107.267 210.643 107.848C211.485 108.404 212.238 108.991 212.9 109.607C213.594 110.23 214.247 110.811 214.86 111.349C215.48 111.856 216.155 112.191 216.886 112.356C217.465 112.452 218.134 112.52 218.893 112.557C219.556 112.573 220.33 112.547 221.212 112.478C222.134 112.385 223.18 112.187 224.349 111.883C223.073 112.663 222.022 113.328 221.198 113.876C220.413 114.4 219.796 114.845 219.346 115.211C218.819 115.627 218.428 115.956 218.173 116.199C217.904 116.505 217.5 116.965 216.962 117.578C216.47 118.134 215.8 118.885 214.954 119.829C214.115 120.741 213.042 121.951 211.735 123.459C212.228 121.267 212.388 119.518 212.215 118.211C212.074 116.912 211.82 115.887 211.455 115.138C211.016 114.271 210.437 113.657 209.718 113.295C209.04 113.043 208.313 113.012 207.536 113.205C206.766 113.365 205.96 113.684 205.118 114.162C204.308 114.647 203.486 115.263 202.651 116.009C201.854 116.731 201.095 117.511 200.372 118.349C199.682 119.195 199.067 120.074 198.528 120.987C197.996 121.869 197.589 122.711 197.308 123.516C197.048 124.225 196.84 125.078 196.682 126.077C196.531 127.044 196.452 128.061 196.446 129.127C196.447 130.162 196.514 131.195 196.649 132.226C196.784 133.257 197.02 134.211 197.357 135.088C197.732 135.94 198.2 136.679 198.76 137.305C199.327 137.9 200.042 138.278 200.907 138.439C201.874 138.59 202.875 138.515 203.91 138.214C204.797 137.98 205.75 137.527 206.769 136.855C207.794 136.152 208.791 135.058 209.759 133.574L216.52 136.447C213.93 138.467 211.527 139.878 209.311 140.681C207.127 141.49 205.216 141.978 203.577 142.143C201.67 142.314 199.926 142.206 198.345 141.817C196.394 141.144 194.656 140.119 193.131 138.742C191.606 137.364 190.366 135.834 189.41 134.151C188.493 132.443 187.874 130.669 187.554 128.828C187.234 126.988 187.304 125.269 187.764 123.67C188.07 122.605 188.575 121.4 189.278 120.057C189.987 118.682 190.831 117.304 191.81 115.922C192.819 114.548 193.949 113.234 195.199 111.98C196.449 110.727 197.758 109.653 199.127 108.76C200.503 107.835 201.92 107.17 203.38 106.764C204.878 106.334 206.341 106.279 207.77 106.601ZM221.203 110.074C223.274 110.807 225.073 111.412 226.6 111.889C228.135 112.334 229.403 112.703 230.405 112.995C231.566 113.323 232.547 113.561 233.348 113.707C234.181 113.861 235.326 114.036 236.784 114.23C238.012 114.407 239.629 114.637 241.633 114.921C243.645 115.174 246.164 115.473 249.189 115.82C249.056 116.558 248.911 117.276 248.754 117.975C248.636 118.649 248.535 119.243 248.453 119.759C248.349 120.369 248.239 120.929 248.125 121.437C248.004 121.977 247.818 122.652 247.569 123.464C247.348 124.148 247.037 125.012 246.635 126.056C246.272 127.076 245.784 128.284 245.169 129.68C245.11 127.865 244.992 126.387 244.815 125.246C244.645 124.074 244.457 123.131 244.251 122.417C244.034 121.601 243.778 120.959 243.483 120.492C243.134 120.113 242.696 119.765 242.167 119.445C241.694 119.172 241.072 118.899 240.299 118.625C239.559 118.358 238.65 118.17 237.573 118.061C236.471 122.218 235.596 125.591 234.946 128.181C234.297 130.771 233.792 132.792 233.431 134.246C233.006 135.986 232.708 137.237 232.537 137.999C232.326 139.086 232.261 140.189 232.343 141.308C232.397 142.255 232.602 143.269 232.96 144.35C233.317 145.431 233.953 146.459 234.869 147.432L229.057 146.124C228.517 146.003 227.843 145.885 227.035 145.77C226.353 145.683 225.482 145.554 224.419 145.381C223.389 145.216 222.173 145.059 220.772 144.911C221.434 144.192 221.983 143.532 222.419 142.929C222.855 142.327 223.205 141.805 223.471 141.364C223.791 140.836 224.048 140.36 224.243 139.936C224.418 139.308 224.787 138.04 225.35 136.131C225.56 135.345 225.813 134.367 226.109 133.199C226.437 132.039 226.815 130.655 227.243 129.05C227.703 127.452 228.2 125.612 228.735 123.53C229.31 121.424 229.944 119.047 230.64 116.401C230.104 116.114 229.56 116.008 229.009 116.084C228.466 116.129 227.975 116.235 227.536 116.404C227.02 116.621 226.506 116.906 225.993 117.257C225.458 117.704 224.841 118.3 224.14 119.043C223.531 119.673 222.805 120.527 221.961 121.606C221.125 122.652 220.146 123.966 219.022 125.549C219.278 123.671 219.506 122.137 219.707 120.948C219.915 119.727 220.078 118.779 220.197 118.105C220.343 117.304 220.46 116.713 220.546 116.332C220.624 115.983 220.696 115.515 220.761 114.929C220.805 114.439 220.865 113.801 220.941 113.018C221.024 112.202 221.112 111.221 221.203 110.074Z" fill="black"/>
</g>
<defs>
<filter id="filter0_i_104_174" x="21.5" y="12.1503" width="250" height="282.725" filterUnits="userSpaceOnUse" color-interpolation-filters="sRGB">
<feFlood flood-opacity="0" result="BackgroundImageFix"/>
<feBlend mode="normal" in="SourceGraphic" in2="BackgroundImageFix" result="shape"/>
<feColorMatrix in="SourceAlpha" type="matrix" values="0 0 0 0 0 0 0 0 0 0 0 0 0 0 0 0 0 0 127 0" result="hardAlpha"/>
<feOffset dy="4"/>
<feGaussianBlur stdDeviation="35.5"/>
<feComposite in2="hardAlpha" operator="arithmetic" k2="-1" k3="1"/>
<feColorMatrix type="matrix" values="0 0 0 0 0.913725 0 0 0 0 0.890196 0 0 0 0 0.87451 0 0 0 0.78 0"/>
<feBlend mode="normal" in2="shape" result="effect1_innerShadow_104_174"/>
</filter>
<filter id="filter1_d_104_174" x="0.87561" y="19" width="290.402" height="199" filterUnits="userSpaceOnUse" color-interpolation-filters="sRGB">
<feFlood flood-opacity="0" result="BackgroundImageFix"/>
<feColorMatrix in="SourceAlpha" type="matrix" values="0 0 0 0 0 0 0 0 0 0 0 0 0 0 0 0 0 0 127 0" result="hardAlpha"/>
<feOffset dy="4"/>
<feGaussianBlur stdDeviation="12.5"/>
<feComposite in2="hardAlpha" operator="out"/>
<feColorMatrix type="matrix" values="0 0 0 0 0 0 0 0 0 0 0 0 0 0 0 0 0 0 0.62 0"/>
<feBlend mode="normal" in2="BackgroundImageFix" result="effect1_dropShadow_104_174"/>
<feBlend mode="normal" in="SourceGraphic" in2="effect1_dropShadow_104_174" result="shape"/>
</filter>
<filter id="filter2_d_104_174" x="38.9423" y="70.7432" width="214.544" height="88.8002" filterUnits="userSpaceOnUse" color-interpolation-filters="sRGB">
<feFlood flood-opacity="0" result="BackgroundImageFix"/>
<feColorMatrix in="SourceAlpha" type="matrix" values="0 0 0 0 0 0 0 0 0 0 0 0 0 0 0 0 0 0 127 0" result="hardAlpha"/>
<feOffset dy="4"/>
<feGaussianBlur stdDeviation="2"/>
<feComposite in2="hardAlpha" operator="out"/>
<feColorMatrix type="matrix" values="0 0 0 0 0 0 0 0 0 0 0 0 0 0 0 0 0 0 0.25 0"/>
<feBlend mode="normal" in2="BackgroundImageFix" result="effect1_dropShadow_104_174"/>
<feBlend mode="normal" in="SourceGraphic" in2="effect1_dropShadow_104_174" result="shape"/>
</filter>
<linearGradient id="paint0_linear_104_174" x1="260.5" y1="46" x2="109" y2="187.5" gradientUnits="userSpaceOnUse">
<stop/>
<stop offset="1" stop-opacity="0"/>
</linearGradient>
<radialGradient id="paint1_radial_104_174" cx="0" cy="0" r="1" gradientUnits="userSpaceOnUse" gradientTransform="translate(154.797 115.488) rotate(83.7414) scale(92.7459 117.88)">
<stop/>
<stop offset="0.994962" stop-opacity="0"/>
</radialGradient>
</defs>
</svg>
